<svg xmlns="http://www.w3.org/2000/svg" class="absolute top-0 left-0 w-full h-full" viewBox="0 0 388 155"><path fill="#0A5495" d="M82.51 54.34c-.1 1.09-.23 2.16-.39 3.24l-.01.05-.14.91-.04.25-.15.85-.06.3-.16.82-.06.3-.18.83-.06.24a60.7 60.7 0 0 1-1.11 4.1l-.23.73-.12.38-.24.69-.14.41-.24.67-.16.42-.26.66-.16.41-.27.67-.08.19-.61 1.39-.21.47-.27.56-.24.51-.27.54-.27.52-.27.52-.29.53-.27.5-.32.56-.26.46-.39.67-.21.35-.61.98-.22.34-.43.66-.27.39-.41.6-.29.4-.41.58-.29.4-.44.59-.28.37-.5.63-.24.31-.76.93.02 11.58 2.88-2.92a66.02 66.02 0 0 0 4.51-5.29 65.7 65.7 0 0 0 14.05-43.9 67.56 67.56 0 0 0-8.17 8.65Z"/><path fill="#066938" d="m69.23 97.81-.02-11.58-.77-.93-.25-.31-.5-.63-.29-.37-.44-.59-.29-.4-.42-.58-.29-.41-.41-.59a13.87 13.87 0 0 1-.7-1.06l-.22-.34-.61-.98-.25-.41-.36-.6-.28-.49-.3-.53-.29-.53-.27-.5-.29-.55a11 11 0 0 0-.25-.48l-.29-.58-.21-.44a36.3 36.3 0 0 0-.41-.87c-.24-.53-.48-1.06-.7-1.59l-.08-.18-.3-.74-.13-.33-.28-.73-.13-.34-.27-.74-.11-.32-.27-.78a28.68 28.68 0 0 1-.36-1.11v-.01c-.42-1.36-.8-2.73-1.12-4.12l-.03-.15-.2-.93-.04-.18-.19-.94a59.8 59.8 0 0 1-.78-5.5 66.52 66.52 0 0 0-8.17-8.66 65.52 65.52 0 0 0 18.7 49.2l2.87 2.9Z"/><path fill="#80A52B" d="M66.35 94.9a68.33 68.33 0 0 1-4.65-5.3 58.94 58.94 0 0 1-36.35-16.87 57.87 57.87 0 0 1-17.03-35.8 58.94 58.94 0 0 1 39.82 20.61 65.64 65.64 0 0 1-.49-11.84 67.04 67.04 0 0 0-43.5-16.91L0 28.72l.09 4.11a65.66 65.66 0 0 0 19.61 45.5 67.04 67.04 0 0 0 46.17 19.41l3.14.08h.22l-2.88-2.92Z"/><path fill="#117ABF" d="M50.32 48.2a66.52 66.52 0 0 1 5.5 6.16A57.77 57.77 0 0 1 69.1 11.63a57.73 57.73 0 0 1 13.4 42.71 67.49 67.49 0 0 1 8.16-8.64A65.63 65.63 0 0 0 71.97 2.96L69.09 0l-2.88 2.97A65.68 65.68 0 0 0 47.65 45.7c.91.81 1.8 1.64 2.67 2.5Z"/><path fill="#69BEE7" d="M134.17 28.79a67 67 0 0 0-43.5 16.92 71.88 71.88 0 0 1-.06 7.57l-.04.58-.11 1.27-.04.41-.09.8-.04.34-.11.89A58.67 58.67 0 0 1 130 36.93a57.87 57.87 0 0 1-17.03 35.81 58.94 58.94 0 0 1-36.35 16.87 66.33 66.33 0 0 1-4.51 5.29l-2.88 2.92 3.22-.07a67.04 67.04 0 0 0 46.17-19.41 65.7 65.7 0 0 0 19.61-45.5l.09-4.11-4.15.06Z"/><path fill="#117ABF" d="M364.08 56.92c-12.75-3.05-16.2-4.55-16.2-9.36v-.2c0-3.83 3.85-6.31 9.81-6.31 4.69 0 9.59 1.39 14.99 4.25a5.58 5.58 0 0 0 7.1-1.44l2.28-3.09a4.67 4.67 0 0 0-1.47-6.91c-6.69-3.77-14.33-5.69-22.7-5.69-15.12 0-25.67 8.45-25.67 20.55v.2c0 13.98 10.1 17.46 24.35 20.86 11.89 2.84 15.14 4.79 15.14 9.07v.2c0 4.26-4.1 6.8-10.97 6.8-6.32 0-12.28-1.83-18.22-5.59a5.74 5.74 0 0 0-3.07-.88 5.3 5.3 0 0 0-3.97 1.72l-2.61 2.9a4.62 4.62 0 0 0-1.17 3.77 5.1 5.1 0 0 0 2.38 3.54 49.49 49.49 0 0 0 26.33 7.42c16.62 0 26.94-8.1 26.94-21.15v-.2c.03-12.28-9.29-17.06-23.27-20.46Zm-47.83-28.27h-6.35a4.8 4.8 0 0 0-4.8 4.79v59.59a4.8 4.8 0 0 0 4.8 4.79h6.35a4.8 4.8 0 0 0 4.8-4.79V33.44a4.8 4.8 0 0 0-4.8-4.79Zm-28.79 0h-10.67c-1.59 0-2.78.69-3.53 1.88l-15.82 25.33-15.82-25.33a3.97 3.97 0 0 0-3.54-1.88h-10.7a4.8 4.8 0 0 0-4.8 4.79v59.59a4.8 4.8 0 0 0 4.8 4.79h5.43a4.8 4.8 0 0 0 4.8-4.79l.04-42.09s16.88 25.5 17.62 26.64l.06.09c.63.99 1.36 1.44 2.11 1.4.75.04 1.48-.41 2.11-1.4l.06-.09c.73-1.14 17.62-26.64 17.62-26.64v42.09a4.8 4.8 0 0 0 4.8 4.79h5.43a4.8 4.8 0 0 0 4.8-4.79V33.44a4.8 4.8 0 0 0-4.8-4.79Zm-79.07 0-33 .02c-12.04 0-21.12 9.14-21.12 21.26V76.5c0 6.31 2.72 12.25 7.45 16.31l.67.54a21.21 21.21 0 0 0 13.22 4.4l32.77.06a4.82 4.82 0 0 0 4.81-4.81v-5.73a4.81 4.81 0 0 0-4.81-4.81H175.6a5.09 5.09 0 0 1-5.08-5.08v-5.91c0-.49.4-.89.89-.89h29.67a4.8 4.8 0 0 0 4.52-4.79v-5.25a4.82 4.82 0 0 0-4.81-4.81h-29.38a.89.89 0 0 1-.89-.89v-5.91c0-2.8 2.28-5.08 5.08-5.08h32.78a4.82 4.82 0 0 0 4.81-4.81v-5.61a4.8 4.8 0 0 0-4.8-4.78Z"/><path fill="currentColor" d="M8.19 139.95v-.07a9.24 9.24 0 0 1 9.19-9.37c2.98 0 5 1.14 6.59 2.6a1.28 1.28 0 0 1-.86 2.22 1.4 1.4 0 0 1-.87-.31c-1.28-1.18-2.74-2.15-4.89-2.15-3.64 0-6.42 3.09-6.42 6.94v.07c0 3.88 2.85 6.97 6.59 6.97 2.05 0 3.68-.94 5-2.19.17-.17.42-.35.76-.35.66 0 1.21.59 1.21 1.21 0 .31-.14.62-.35.83a9.04 9.04 0 0 1-6.77 2.88 9.18 9.18 0 0 1-9.18-9.28Zm19.28 0v-.07a9.29 9.29 0 0 1 9.37-9.37 9.21 9.21 0 0 1 9.33 9.3v.07a9.32 9.32 0 0 1-9.4 9.37 9.19 9.19 0 0 1-9.3-9.3Zm15.96 0v-.07c0-3.85-2.88-7.01-6.66-7.01-3.88 0-6.56 3.16-6.56 6.94v.07c0 3.85 2.85 6.97 6.63 6.97 3.88.01 6.59-3.12 6.59-6.9Zm7.56-7.87a1.33 1.33 0 1 1 2.67 0v1.94a6.8 6.8 0 0 1 6.14-3.5c4.34 0 6.87 2.91 6.87 7.18v9.96c0 .76-.59 1.35-1.32 1.35-.76 0-1.35-.59-1.35-1.35v-9.3c0-3.33-1.81-5.41-4.96-5.41-3.09 0-5.38 2.26-5.38 5.62v9.09a1.3 1.3 0 0 1-1.32 1.35c-.76 0-1.35-.59-1.35-1.35v-15.58Zm21.36 0a1.33 1.33 0 1 1 2.67 0v1.94a6.8 6.8 0 0 1 6.14-3.5c4.34 0 6.87 2.91 6.87 7.18v9.96c0 .76-.59 1.35-1.32 1.35-.76 0-1.35-.59-1.35-1.35v-9.3c0-3.33-1.81-5.41-4.96-5.41-3.09 0-5.38 2.26-5.38 5.62v9.09a1.3 1.3 0 0 1-1.32 1.35c-.76 0-1.35-.59-1.35-1.35v-15.58Zm29.21 17.17c-4.93 0-8.95-3.78-8.95-9.33v-.07c0-5.17 3.64-9.33 8.6-9.33 5.31 0 8.33 4.34 8.33 9.09 0 .73-.59 1.25-1.25 1.25H95.32c.38 3.89 3.12 6.07 6.31 6.07 2.22 0 3.85-.87 5.17-2.08.21-.17.45-.31.76-.31.66 0 1.18.52 1.18 1.14 0 .31-.14.62-.42.87a9.1 9.1 0 0 1-6.76 2.7Zm5.31-10.37c-.28-3.26-2.15-6.11-5.72-6.11-3.12 0-5.48 2.6-5.83 6.11h11.55Zm6.27 1.07v-.07a9.24 9.24 0 0 1 9.19-9.37c2.98 0 5 1.14 6.59 2.6a1.28 1.28 0 0 1-.86 2.22 1.4 1.4 0 0 1-.87-.31c-1.28-1.18-2.74-2.15-4.89-2.15-3.64 0-6.42 3.09-6.42 6.94v.07c0 3.88 2.85 6.97 6.59 6.97 2.05 0 3.68-.94 5-2.19.17-.17.42-.35.76-.35.66 0 1.21.59 1.21 1.21 0 .31-.14.62-.35.83a9.04 9.04 0 0 1-6.77 2.88 9.18 9.18 0 0 1-9.18-9.28Zm21.86 4.13v-10.82h-1.46c-.62 0-1.18-.55-1.18-1.18 0-.66.56-1.18 1.18-1.18H135v-4.23c0-.73.56-1.35 1.32-1.35.73 0 1.35.62 1.35 1.35v4.23h4.65c.66 0 1.21.55 1.21 1.18a1.2 1.2 0 0 1-1.21 1.18h-4.65v10.48c0 2.18 1.21 2.98 3.02 2.98.94 0 1.42-.24 1.63-.24.62 0 1.14.52 1.14 1.14 0 .49-.31.87-.76 1.04a6.8 6.8 0 0 1-2.64.49c-2.88 0-5.06-1.43-5.06-5.07Zm13.07-18.8c0-.87.7-1.42 1.56-1.42.9 0 1.6.56 1.6 1.42v.45c0 .83-.69 1.42-1.6 1.42-.87 0-1.56-.59-1.56-1.42v-.45Zm.25 6.8a1.33 1.33 0 1 1 2.67 0v15.58a1.3 1.3 0 0 1-1.32 1.35c-.76 0-1.35-.59-1.35-1.35v-15.58Zm8.87 0a1.33 1.33 0 1 1 2.67 0v1.94a6.8 6.8 0 0 1 6.14-3.5c4.34 0 6.87 2.91 6.87 7.18v9.96c0 .76-.59 1.35-1.32 1.35-.76 0-1.35-.59-1.35-1.35v-9.3c0-3.33-1.81-5.41-4.96-5.41-3.09 0-5.38 2.26-5.38 5.62v9.09a1.3 1.3 0 0 1-1.32 1.35c-.76 0-1.35-.59-1.35-1.35v-15.58Zm21.82 20.26a1.22 1.22 0 0 1-.69-1.11c0-.59.59-1.18 1.21-1.18.24 0 .42.07.59.17a11.3 11.3 0 0 0 6.35 1.94c3.95 0 6.52-2.18 6.52-6.38v-2.12c-1.56 2.08-3.75 3.78-7.04 3.78a8.3 8.3 0 0 1-8.43-8.4v-.07a8.32 8.32 0 0 1 8.43-8.46 8.4 8.4 0 0 1 7.01 3.61v-2.05c0-.73.55-1.35 1.32-1.35.76 0 1.35.62 1.35 1.35v13.63c0 2.77-.83 4.89-2.29 6.35-1.6 1.6-3.99 2.39-6.83 2.39-2.74.01-5.24-.71-7.5-2.1Zm14.05-13.32v-.07c0-3.68-3.19-6.07-6.59-6.07s-6.21 2.36-6.21 6.04v.07a6.07 6.07 0 0 0 6.21 6.11c3.4-.01 6.59-2.48 6.59-6.08ZM212 124.69c0-.73.59-1.35 1.32-1.35.76 0 1.35.62 1.35 1.35v9.33a6.8 6.8 0 0 1 6.14-3.5c4.34 0 6.87 2.91 6.87 7.18v9.96c0 .76-.59 1.35-1.32 1.35-.76 0-1.35-.59-1.35-1.35v-9.3c0-3.33-1.81-5.41-4.96-5.41-3.09 0-5.38 2.26-5.38 5.62v9.09a1.3 1.3 0 0 1-1.32 1.35c-.76 0-1.35-.59-1.35-1.35v-22.97Zm29.2 24.56c-4.93 0-8.95-3.78-8.95-9.33v-.07c0-5.17 3.64-9.33 8.6-9.33 5.31 0 8.33 4.34 8.33 9.09 0 .73-.59 1.25-1.25 1.25h-12.97c.38 3.89 3.12 6.07 6.31 6.07 2.22 0 3.85-.87 5.17-2.08.21-.17.45-.31.76-.31.66 0 1.18.52 1.18 1.14 0 .31-.14.62-.42.87a9.1 9.1 0 0 1-6.76 2.7Zm5.31-10.37c-.28-3.26-2.15-6.11-5.72-6.11-3.12 0-5.48 2.6-5.83 6.11h11.55Zm6.03 4.75v-.07c0-3.78 3.12-5.79 7.67-5.79 2.29 0 3.92.31 5.52.76v-.62c0-3.23-1.98-4.89-5.34-4.89-1.8 0-3.33.42-4.65 1.01-.17.07-.35.1-.49.1-.62 0-1.18-.52-1.18-1.14 0-.56.38-.97.73-1.11a14.18 14.18 0 0 1 5.86-1.21c2.53 0 4.48.66 5.79 1.98 1.21 1.21 1.84 2.95 1.84 5.24v9.82c0 .76-.56 1.32-1.28 1.32-.76 0-1.29-.55-1.29-1.25v-1.63a7.87 7.87 0 0 1-6.49 3.09c-3.32-.02-6.69-1.93-6.69-5.61Zm13.22-1.39v-1.73a18.8 18.8 0 0 0-5.27-.76c-3.37 0-5.24 1.46-5.24 3.71v.07c0 2.25 2.08 3.57 4.51 3.57 3.3 0 6-2.01 6-4.86Zm8.46-17.55c0-.73.59-1.35 1.32-1.35.76 0 1.35.62 1.35 1.35v22.97a1.3 1.3 0 0 1-1.32 1.35c-.76 0-1.35-.59-1.35-1.35v-22.97Zm9.82 19.39v-10.82h-1.46c-.62 0-1.18-.55-1.18-1.18 0-.66.56-1.18 1.18-1.18h1.46v-4.23c0-.73.56-1.35 1.32-1.35.73 0 1.35.62 1.35 1.35v4.23h4.65c.66 0 1.21.55 1.21 1.18a1.2 1.2 0 0 1-1.21 1.18h-4.65v10.48c0 2.18 1.21 2.98 3.02 2.98.94 0 1.42-.24 1.63-.24.62 0 1.14.52 1.14 1.14 0 .49-.31.87-.76 1.04a6.8 6.8 0 0 1-2.64.49c-2.88 0-5.06-1.43-5.06-5.07Zm13.07-19.39c0-.73.59-1.35 1.32-1.35.76 0 1.35.62 1.35 1.35v9.33a6.8 6.8 0 0 1 6.14-3.5c4.34 0 6.87 2.91 6.87 7.18v9.96c0 .76-.59 1.35-1.32 1.35-.76 0-1.35-.59-1.35-1.35v-9.3c0-3.33-1.81-5.41-4.96-5.41-3.09 0-5.38 2.26-5.38 5.62v9.09a1.3 1.3 0 0 1-1.32 1.35c-.76 0-1.35-.59-1.35-1.35v-22.97Zm20.26 15.26v-.07a9.25 9.25 0 0 1 9.19-9.37c2.98 0 5 1.14 6.59 2.6a1.28 1.28 0 0 1-.86 2.22 1.4 1.4 0 0 1-.87-.31c-1.28-1.18-2.74-2.15-4.89-2.15-3.64 0-6.42 3.09-6.42 6.94v.07c0 3.88 2.85 6.97 6.59 6.97 2.05 0 3.68-.94 5-2.19.17-.17.42-.35.76-.35.66 0 1.21.59 1.21 1.21 0 .31-.14.62-.35.83a9.04 9.04 0 0 1-6.77 2.88 9.18 9.18 0 0 1-9.18-9.28Zm19.56 3.68v-.07c0-3.78 3.12-5.79 7.67-5.79 2.29 0 3.92.31 5.52.76v-.62c0-3.23-1.98-4.89-5.34-4.89-1.8 0-3.33.42-4.65 1.01-.17.07-.35.1-.49.1-.62 0-1.18-.52-1.18-1.14 0-.56.38-.97.73-1.11a14.18 14.18 0 0 1 5.86-1.21c2.53 0 4.48.66 5.79 1.98 1.21 1.21 1.84 2.95 1.84 5.24v9.82c0 .76-.56 1.32-1.28 1.32-.77 0-1.29-.55-1.29-1.25v-1.63a7.87 7.87 0 0 1-6.49 3.09c-3.32-.02-6.69-1.93-6.69-5.61Zm13.22-1.39v-1.73a18.8 18.8 0 0 0-5.27-.76c-3.37 0-5.24 1.46-5.24 3.71v.07c0 2.25 2.08 3.57 4.51 3.57 3.29 0 6-2.01 6-4.86Zm8.22-10.16a1.33 1.33 0 1 1 2.67 0v3.37c1.32-2.99 3.92-4.79 6.18-4.79.8 0 1.32.59 1.32 1.35 0 .73-.49 1.25-1.18 1.35-3.47.42-6.31 3.02-6.31 8.19v6.11c0 .73-.56 1.35-1.32 1.35s-1.35-.59-1.35-1.35v-15.58h-.01Zm21.12 17.17c-4.93 0-8.95-3.78-8.95-9.33v-.07c0-5.17 3.64-9.33 8.6-9.33 5.31 0 8.33 4.34 8.33 9.09 0 .73-.59 1.25-1.25 1.25h-12.98c.38 3.89 3.12 6.07 6.31 6.07 2.22 0 3.85-.87 5.17-2.08.21-.17.45-.31.76-.31.66 0 1.18.52 1.18 1.14 0 .31-.14.62-.42.87a9.05 9.05 0 0 1-6.75 2.7Zm5.31-10.37c-.28-3.26-2.15-6.11-5.72-6.11-3.12 0-5.48 2.6-5.83 6.11h11.55Z"/></svg>
