<svg height="219.242932" preserveAspectRatio="xMidYMid meet" viewBox="0 0 2277 1094" width="456.115047" xmlns="http://www.w3.org/2000/svg"><g transform="matrix(.1 0 0 -.1 0 1094)"><path d="m16735 10894c-59-15-86-27-78-34 4-4 41-15 82-25 86-21 257-105 381-187 47-31 138-107 203-168l117-112 55 47c83 70 85 78 33 134s-261 225-327 263c-79 46-212 79-336 83-60 2-119 2-130-1z"/><path d="m18397 10789c-101-15-198-49-332-118-191-99-316-185-440-303l-110-105 61-63 61-63 89 72c295 240 633 413 947 486 64 15 117 31 117 35 0 11-71 38-144 55-66 16-158 17-249 4z"/><path d="m16410 10610c-361-43-620-230-716-517-27-81-30-158-5-158 8 0 34 36 58 80 95 172 184 253 341 309 80 28 97 31 207 30 214-2 429-56 650-164 135-65 203-108 347-216 55-41 103-74 107-74 12 0 121 141 121 156 0 21-114 156-198 235-141 133-308 226-504 283-148 43-263 53-408 36z"/><path d="m18580 10418c-325-22-673-182-915-421-81-81-165-191-165-216 1-19 55-81 71-81 6 0 45 30 87 67 185 161 419 280 667 338 148 34 271 48 450 48 140 0 168-3 225-22 84-29 188-94 275-172 39-35 83-74 99-88l29-26-7 30c-29 119-126 293-214 381-136 137-304 183-602 162z"/><path d="m16365 10186c-283-56-494-236-616-526-33-79-51-202-31-214 6-4 39 36 77 93 114 171 227 260 400 314 113 36 138 40 240 39 173-2 347-52 580-167 83-41 202-108 265-149s118-72 122-70c5 3 22 28 38 56 27 49 28 53 14 81-38 72-243 259-399 364-200 134-332 183-505 189-72 2-141-2-185-10z"/><path d="m2187 10135c-224-43-398-135-544-288-131-138-210-312-233-515-55-477 274-867 801-948 128-20 308-13 424 15 346 85 607 336 697 671 30 114 32 341 4 440-87 299-326 520-656 607-122 32-370 41-493 18zm386-92c202-71 349-206 442-407 61-131 79-227 80-416 0-194-18-275-93-429-75-156-217-280-372-325-82-25-221-30-316-13-311 57-543 289-626 624-31 128-31 324 1 448 73 283 239 472 472 535 60 16 97 20 199 17 108-3 137-8 213-34z"/><path d="m8455 10139c-130-19-318-92-427-167-255-175-392-465-375-791 7-134 25-202 84-321 40-81 62-110 148-196 58-58 127-116 164-137 467-273 1063-180 1366 214 127 164 185 340 185 563 0 145-20 238-76 348-47 95-87 149-171 229-141 136-309 219-512 254-90 16-288 18-386 4zm329-84c248-69 443-270 520-539 63-216 54-451-24-653-107-278-346-437-630-419-115 7-192 26-285 71-228 111-380 317-437 595-28 134-21 327 17 455 42 144 96 237 195 336 94 94 172 139 283 164 79 19 279 13 361-10z"/><path d="m6188 10135c-2-1-113-5-248-9-314-9-340-12-340-41 0-20 6-22 80-28 100-8 136-26 161-80 18-40 19-75 19-712s-1-672-19-712c-26-55-66-75-163-81l-78-5v-29-29l473 2c457 1 566 6 672 31 441 101 737 453 737 879-1 118-15 202-53 300-82 212-260 367-513 448-149 48-267 63-508 66-119 2-218 2-220 0zm337-65c126-18 208-41 305-87 175-84 305-245 361-449 45-163 40-383-12-539-69-208-197-360-374-446-123-60-196-72-435-73-182-1-209 1-233 17-15 10-32 29-37 43-6 15-10 324-10 779v754l28 4c56 8 339 6 407-3z"/><path d="m15439 10087c-553-255-1070-613-1518-1052-236-232-402-420-568-645-460-626-776-1326-937-2075-44-206-65-350-101-685-10-99-13-602-4-730 82-1139 489-2155 1209-3019 470-564 1043-1015 1705-1341 591-292 1148-449 1845-522 190-20 782-17 985 5 1038 113 1958 490 2755 1130 957 769 1612 1839 1854 3028 79 390 100 609 100 1049 1 361-5 463-45 747-230 1663-1269 3121-2783 3908-151 79-436 209-442 202-2-1 8-33 21-69 13-37 30-96 36-130l12-64 191-94c482-239 889-529 1280-910 417-407 738-851 1001-1385 341-693 515-1435 515-2190-1-1188-401-2296-1160-3216-128-154-486-513-640-641-752-622-1631-1007-2580-1128-619-78-1243-41-1850 110-1569 391-2861 1530-3455 3045-519 1324-444 2812 206 4095 498 983 1296 1786 2266 2278 186 94 183 91 183 181 0 20 9 65 20 100s19 65 17 67-55-20-118-49z"/><path d="m10 10086c0-22 5-24 72-30 79-7 120-26 152-69 21-28 21-35 24-720 2-644 1-694-15-727-26-51-72-70-165-70h-78v-30-30l611 2 610 3 101 190c55 105 102 195 104 200 3 6-6 11-20 10-19 0-39-20-89-85-87-115-140-168-195-193-44-21-62-22-315-22h-269l-24 28-24 28 1 687c0 505 3 696 12 722 20 56 60 72 195 78 115 4 117 5 117 28v24h-402-403z"/><path d="m3390 10086c0-21 6-24 66-34 36-6 87-21 113-34l46-23 3-698c2-664 1-701-17-741-22-52-70-78-153-84-56-4-58-5-58-33v-29h315 315v29 28l-77 5c-91 5-152 32-174 75-12 23-14 134-17 673l-2 645 58-60c33-33 350-365 706-737 627-656 647-677 681-675l35 2v785c0 761 1 786 20 817 22 36 55 48 163 59 62 6 67 9 67 30v24h-320-320v-24c0-22 5-24 85-34 47-6 99-19 115-29 61-36 60-25 63-662l2-580-38 37c-21 20-309 319-640 664l-602 628h-217-218z"/><path d="m9640 10086c0-22 6-25 68-36 37-6 86-21 110-34l43-22-1-709c0-660-1-711-18-739-25-43-70-66-144-74-59-7-63-9-63-32v-25l318-3 318-2-3 27c-3 27-5 28-80 34-92 8-146 32-173 79-19 34-20 53-23 673-2 352 1 637 6 635 4-1 322-331 705-733 639-668 700-730 731-731 29-2 35 1 39 24 4 15 6 371 6 791 1 845-3 798 64 826 18 7 65 17 105 20 67 7 72 9 72 31v24h-320-320v-25c0-17 6-25 18-26 161-4 234-43 247-132 3-23 5-291 3-594l-3-553-638 665-638 665h-214-215z"/><path d="m18410 9999c-164-19-353-92-516-200-106-71-286-248-376-370-40-55-78-99-85-99-6 0-40 24-74 53-185 157-262 204-409 253-136 45-225 59-385 58-172-1-262-22-415-96-90-43-117-63-186-132-109-109-175-228-224-400-28-98-44-258-36-339l8-68 46 80c165 284 391 498 667 631 135 65 180 74 339 67 227-10 349-58 481-192 86-87 129-159 140-237 11-71 1-96-37-100-43-4-55-27-39-76 20-60 9-95-76-232-130-213-181-352-208-570-15-126-15-176 1-311 9-79 5-81-219-74-218 7-337 20-349 37-4 7-8 28-8 46 0 17-5 32-11 32-7 0-31-18-55-40s-48-40-54-40c-5 0-10-5-10-11 0-14 88-119 100-119 4 0 10 13 13 29 11 52 26 54 270 37 122-9 292-16 377-15 142 1 163-2 245-26 166-51 242-47 559 31 238 57 413 65 738 33 163-16 228 1 335 85 28 23 73 54 99 69 109 65-29 61-356-11-253-56-335-67-490-65-174 3-247 9-361 30-81 15-89 15-143-2-55-17-88-42-131-100-21-27-21-27-53-11-55 29-55 89 1 152 37 44 86 67 193 94 81 20 95 30 88 64-8 45-23 522-22 726 0 302 10 409 44 477 160 327 748 353 1074 47 128-122 224-281 300-501 18-51 36-93 40-93 11 0 27 69 41 175 54 414-163 738-565 840-304 77-602 15-861-181-41-30-92-75-114-100-42-48-55-52-89-28-40 27-28 58 54 144 151 158 298 229 599 290 87 18 129 21 202 17 112-8 265-38 389-78 175-56 257-101 381-208l72-62-15 53c-23 80-88 207-137 267-131 157-314 245-562 270-119 12-118 12-225 0zm-944-1212c34-65 285-791 282-816-4-37-51-53-78-26-10 11-55 126-98 255-44 129-108 312-141 406-36 101-59 179-55 189 8 19 43 35 62 27 7-2 20-18 28-35zm-93-186c37-90 48-159 42-263-2-57-7-186-10-288-8-268-15-362-31-387-13-21-22-23-109-23-51 0-105 4-120 10-39 15-55 66-62 198-4 99-1 140 21 265 30 170 53 232 135 365 32 54 66 112 75 130 22 42 40 41 59-7z"/><path d="m17134 9086c-111-43-146-65-142-89 4-31 37-33 90-6 23 12 65 29 92 39 53 18 73 38 63 64-8 21-30 20-103-8z"/><path d="m17923 9103c-16-6-17-35-1-51 7-7 30-12 53-12 22 0 72-13 110-29 50-20 75-26 88-19 24 12 21 35-7 53-54 36-208 73-243 58z"/><path d="m16590 9020c-11-11-20-27-20-35s9-24 20-35 27-20 35-20 24 9 35 20 20 27 20 35-9 24-20 35-27 20-35 20-24-9-35-20z"/><path d="m16786 8999c-24-35-6-64 39-64 47 0 64 22 47 59-15 33-64 36-86 5z"/><path d="m18280 8960c-24-24-25-48-4-78 29-42 94-14 94 40 0 22-34 58-55 58-8 0-24-9-35-20z"/><path d="m18502 8948c-27-27-5-88 32-88 13 0 31 9 42 21 17 19 17 23 3 47-16 30-57 40-77 20z"/><path d="m16678 8869c-21-12-24-69-6-87 17-17 73-15 88 3 18 22 15 66-6 82-21 15-52 16-76 2z"/><path d="m16454 8846c-21-34-14-67 19-86 24-13 30-13 55 0 33 19 42 69 17 94s-72 20-91-8z"/><path d="m16918 8848c-40-33-19-88 32-88 45 0 66 52 34 84-19 19-45 20-66 4z"/><path d="m20137 8829c-38-23-74-27-102-13-54 28-106 16-180-40-35-27-56-36-86-36-76 0-129-45-129-111 0-53 17-63 97-54 94 11 107 9 194-36 65-34 109-71 187-154 19-21 41-7 67 45 52 102 108 141 161 114 67-35 234-234 405-483 47-69 98-134 113-146 25-18 29-18 54-4 19 10 30 28 37 57 8 34 18 46 45 60l35 17-3 68c-2 48 2 74 13 90 27 39 19 86-21 124l-37 34 18 52c16 48 16 55 2 89-22 53-56 72-119 66-42-4-57-1-86 18-45 31-98 40-136 24-17-7-44-13-61-12-143 2-150 6-142 74 4 36 1 46-25 71-27 28-33 29-85 24-55-6-57-5-89 29-35 39-93 54-127 33z"/><path d="m18435 8822c-31-7-45-22-45-51 0-34 17-51 50-51s50 17 50 50c0 32-27 58-55 52z"/><path d="m18177 8802c-34-37-16-85 29-80 38 4 59 44 40 73-18 27-48 30-69 7z"/><path d="m18592 8778c-7-7-12-26-12-43s5-36 12-43c18-18 63-14 81 6 21 23 21 41 1 70-17 24-62 30-82 10z"/><path d="m16792 8717c-43-19-43-86 0-101 20-7 33-5 52 8 59 38 12 122-52 93z"/><path d="m16360 8680c-23-23-24-33-10-61 20-36 90-17 90 25 0 24-28 56-48 56-7 0-21-9-32-20z"/><path d="m16557 8672c-20-22-22-63-5-80 20-20 76-15 88 7 33 64-37 125-83 73z"/><path d="m18263 8644c-15-24-15-29-2-53 18-32 54-39 80-15 21 19 25 64 7 82-22 22-66 14-85-14z"/><path d="m18484 8620c-40-15-36-78 7-100 16-9 28-9 45-1 41 18 29 76-21 103-5 3-20 2-31-2z"/><path d="m18688 8593c-9-2-21-17-27-33-8-24-6-34 8-51 34-43 104-19 104 35 0 47-29 64-85 49z"/><path d="m16676 8524c-32-32-8-84 38-84 29 0 49 22 49 56 0 43-55 60-87 28z"/><path d="m16470 8523c-22-8-40-34-40-58 0-25 29-55 54-55 20 0 66 43 66 63 0 32-47 62-80 50z"/><path d="m18373 8489c-30-11-32-68-3-94 42-38 98 12 71 64-16 29-42 40-68 30z"/><path d="m19762 8425c-7-14-12-52-12-85 0-63-14-94-77-178-38-50-44-92-14-92 11 0 27-3 36-6 19-8 55-75 55-102 0-36 25-45 96-38 106 11 129 25 163 98 53 113 25 147-122 147-47-1-91 2-97 6-21 13-11 64 15 81 23 15 32 15 79 4 61-14 76-9 76 25 0 106-162 219-198 140z"/><path d="m18563 8428c-31-40-12-88 36-88 33 0 51 16 51 46 0 44-63 73-87 42z"/><path d="m20294 8375c-35-35-54-86-64-171-6-62-14-83-46-130l-39-56 33-26c24-20 34-39 41-76 14-77 35-91 139-91 48-1 93-4 100-9 7-4 21-24 31-44 29-58 121-317 121-341 0-16-21-35-82-75-46-29-90-62-99-72-33-38-64-115-155-387-51-153-100-290-109-303-9-14-30-34-48-45-30-19-44-20-207-15-96 3-294 7-440 8-249 2-268 1-311-19-54-24-189-150-189-177 0-21 96-114 126-122 31-8 76 18 114 68 48 62 74 79 144 92 53 10 100 7 346-21 336-37 428-40 485-14 81 37 156 145 292 421 84 172 146 310 163 364 12 37 9 141-6 222-9 50 16 68 87 60 42-5 68-2 100 10 61 24 109 56 109 73 0 16-113 233-173 330-145 238-377 547-424 565-8 3-25-5-39-19zm116-231c13-14 12-18-13-40-30-26-85-32-105-12-13 13-16 60-4 72 11 12 105-4 122-20z"/><path d="m11177 8086c-119-42-224-140-296-276-33-62-91-226-91-258 0-24-9-28-86-37-75-10-104-21-104-40 0-12 15-15 80-15 59 0 80-3 80-13 0-7-24-134-54-283-30-148-64-322-76-388-53-291-117-427-225-477-73-34-109-26-245 51-45 26-90 25-124-1-35-27-33-61 4-93 79-66 242-61 389 11 83 41 205 168 258 268 64 122 87 203 158 560 36 182 68 338 71 348 5 15 19 17 104 17h98l11 31c6 18 11 34 11 35 0 2-47 4-103 4h-104l39 161c60 251 116 337 221 341 33 1 45-4 142-56 63-34 110-32 138 5 17 24 18 30 6 55-35 73-173 95-302 50z"/><path d="m360 7939c-206-30-342-165-343-339 0-161 85-274 329-435 65-43 156-103 202-133 99-66 183-146 214-205 31-58 31-165 1-223-63-119-207-183-368-162-150 20-283 138-334 299-9 28-17 36-34 35-25-1-26 10 4-203 10-79 19-147 19-153 0-13 26-13 66 2 27 9 48 7 140-17 141-36 275-43 364-21 128 32 226 97 290 191 64 95 79 233 36 337-51 124-141 209-374 356-235 148-307 208-351 296-34 69-27 158 16 218 76 105 250 132 399 62 73-34 160-120 194-192 20-41 30-52 48-52 20 0 23 4 19 23-3 12-13 82-23 155-16 126-18 132-40 132-12 0-26-4-29-10-10-16-67-12-128 9-58 20-187 42-235 40-15-1-52-5-82-10z"/><path d="m1835 7939c-85-11-230-51-288-80-204-103-350-273-417-484-34-107-39-301-11-419 38-160 130-302 261-407 219-175 537-223 900-137 47 11 113 21 148 22l62 1 40 77c39 75 110 247 110 268 0 5-10 10-22 10-16 0-32-14-52-46-103-163-246-264-426-300-368-74-715 177-796 575-23 115-15 307 16 406 51 162 158 303 280 372 110 62 179 78 340 78 134-1 150-3 215-28 38-15 91-42 117-58 68-44 151-138 189-214 26-53 36-65 53-63 12 2 21 10 21 18-2 88-19 331-24 334-4 3-24 0-46-6-35-9-53-7-135 20-52 17-129 37-170 46-93 19-272 26-365 15z"/><path d="m5310 7944c-142-16-250-48-375-112-112-57-240-179-303-288-129-224-146-516-42-726 44-87 81-137 158-210 176-165 408-246 682-235 147 5 241 28 362 86 282 136 460 420 459 735-1 355-243 637-624 726-81 19-250 32-317 24zm204-84c312-80 506-361 508-735 0-190-47-347-142-477-161-220-455-280-725-149-186 91-304 236-371 458-24 78-27 105-27 233 0 130 2 154 27 235 71 233 214 387 409 440 78 21 229 19 321-5z"/><path d="m7159 7940c-229-27-449-142-579-303-200-247-233-608-79-869 104-176 291-309 519-368 103-27 294-37 397-21 318 49 575 257 674 544 169 493-147 955-694 1016-106 12-140 12-238 1zm262-83c301-97 481-369 483-727 1-157-19-251-81-380-119-247-354-361-631-304-236 48-430 227-512 474-88 260-42 560 116 760 70 88 160 150 268 182 49 14 86 17 186 14 71-3 145-11 171-19z"/><path d="m2723 7888c3-17 14-24 53-33 27-6 59-18 71-25 48-30 48-37 48-675 0-665 2-645-65-677-19-9-57-19-85-22-27-2-51-5-52-5-2-1-3-10-3-21 0-20 7-20 305-20h305v23c0 19-6 22-47 25-63 4-110 28-131 66-15 27-17 70-20 314l-3 282h473 473l-5-294c-5-276-6-295-25-316-32-36-71-50-143-54-37-2-73-5-79-5-7-1-13-10-13-21 0-20 7-20 339-20 274 0 340 3 344 13 9 23-6 32-62 35-64 3-104 22-128 59-17 25-18 74-21 630-3 683-5 659 70 693 24 11 58 20 76 20 27 0 32 4 32 25v25h-310-310v-25c0-24 3-25 63-25 74 0 124-22 149-65 15-27 17-64 18-305l2-275-472-3-471-2 3 279c3 264 4 281 24 308 28 38 80 63 132 63 38 0 42 2 42 25v25h-290-290z"/><path d="m8180 7886c0-22 4-24 70-28 79-6 112-23 136-71 16-29 17-89 15-640-1-664 0-652-58-676-16-6-59-13-96-14-65-2-83-11-68-35 5-9 143-12 545-10l537 3 90 173c84 160 88 172 67 172-17 0-38-21-83-81-70-94-122-145-174-166-41-18-358-31-456-18-103 12-95-45-95 655 0 681-1 668 64 695 23 10 70 15 131 15 95 0 95 0 95 25v25h-360-360z"/><path d="m20035 7853c-11-2-62-13-113-25-95-21-108-21-329-2-43 4-98 2-135-5-81-16-338-138-338-161 0-9 20-26 48-39 78-38 164-105 244-190 100-106 188-236 396-586 52-89 91-135 113-135s24 18 9 70c-16 54-13 133 7 192s69 113 238 262c55 48 138 129 183 179 79 86 84 94 78 127-3 19-20 64-38 100l-33 65h-87c-102 0-128 14-169 90-29 52-43 64-74 58z"/><path d="m10210 7589c-145-33-353-193-436-334-98-167-108-375-28-540 30-61 89-121 129-131 96-24 332 101 444 236 66 79 95 130 124 220 61 185 36 382-61 483-59 61-110 81-172 66zm-4-110c41-25 81-89 100-161 41-154-15-403-121-548-37-51-118-100-163-100-69 0-127 62-158 166-13 46-15 81-11 169 7 127 24 201 74 303 78 164 185 229 279 171z"/><path d="m18916 7538c-93-20-241-26-356-12-230 27-459 9-703-55-99-26-275-52-347-52-30 0-111 14-180 30-207 49-289 50-335 4-34-33-11-142 39-186l31-28 6-142c5-94 14-168 28-220 24-90 149-390 192-461 17-26 29-49 27-51-2-1-118-40-258-86-283-93-287-96-235-158 20-23 35-31 58-31 70 0 764 237 1022 348 39 17 149 61 245 98 383 147 510 180 645 171 67-5 183-33 173-42-2-2-31 3-64 10-97 20-251-3-414-62-121-43-580-247-662-293-9-5-124-52-255-105-242-97-390-141-583-173-115-19-127-28-116-86 10-54 36-63 144-47 48 6 140 25 204 41 65 17 122 30 128 30s9-55 9-141c-1-115 1-144 14-157 14-14 30-14 169 2 84 10 174 22 200 28l46 9 7 82c4 45 5 144 3 219l-3 137 45 20c163 73 561 244 640 274 215 83 390 108 471 67l40-21 59 46c60 47 124 75 166 75 33 0 30 13-11 54-47 47-158 112-247 144-63 22-89 26-193 26-108 1-134-3-259-37-77-21-171-51-210-67s-159-63-266-105-199-79-205-81c-7-3-9 101-7 303 3 260 1 311-12 328-13 18-26 20-153 20-150 0-197-11-207-48-3-12-6-55-6-95 0-121-28-281-63-363-33-76-77-77-125-1-66 102-106 240-117 403-8 110 3 131 70 142 28 5 118 24 200 44 179 42 247 46 425 22 160-21 459-25 626-7 90 9 133 9 206-1 51-7 125-14 163-15 39-2 131-6 205-11 137-8 315 6 335 26 13 13-65 90-145 144-63 41-172 87-235 97-16 3-48 1-69-4zm-1208-370c20-20 14-43-39-161-28-61-64-146-81-187-37-93-156-324-180-350-23-24-41-25-62-4-22 21-20 33 13 100 16 33 75 160 131 284 143 316 140 311 164 320 30 12 40 12 54-2z"/><path d="m14760 7404c-14-3-61-17-104-31-71-23-84-25-128-14-63 14-191 14-243 0-66-18-147-60-206-106-42-33-64-43-92-43-47 0-190-37-238-60-49-26-125-87-200-163-60-60-68-65-129-76-90-17-198-49-206-62s72-86 104-95c12-3 52-1 89 6 60 12 71 18 107 59 23 25 52 56 66 69 29 28 136 82 163 82 10 0 44 24 75 53 75 71 132 108 217 142 60 24 83 27 167 27 54-1 103-4 108-7 6-3 36 10 68 29 31 20 86 43 122 52 128 33 345-4 447-76 36-27 50-30 113-30 39 0 90-5 113-11 57-14 130-69 173-130 21-29 54-59 78-71 119-60 193-148 259-307 30-71 32-84 34-211 2-190 5-202 55-244 54-46 74-48 48-3-27 46-27 85-1 141 21 42 23 57 18 120-8 94-69 312-112 401-73 150-221 282-366 325-60 18-71 26-107 74-47 62-78 83-187 127-67 27-95 32-180 34-55 2-111 1-125-1z"/><path d="m20905 7299c-22-10-50-19-63-19-40 0-62-18-62-51 0-42-44-211-81-311-16-46-70-161-120-257-49-95-89-180-89-187 0-8 12-16 28-20 15-3 32-7 37-8 6-2 44 2 84 8l75 11 21 55c12 30 55 123 94 205 133 274 171 383 171 495 0 56-19 101-43 99-7 0-30-9-52-20z"/><path d="m19438 7145c-1-1-32-5-68-8s-66-6-67-6c-2-1-3-23-3-50 0-54 40-223 63-267 21-40 65-80 108-98 37-15 233-25 246-12 9 8-14 55-94 196-99 174-166 263-185 245z"/><path d="m14495 7115c-27-13-68-38-91-55l-41-31-61 17c-124 34-278-19-387-133-34-35-68-63-78-63-30 0-112-32-153-61-23-15-56-50-73-78-37-58-44-61-120-61-64 0-169-24-189-44-19-19-2-30 101-61 105-32 118-47 124-143 4-51-3-100-27-206-25-110-32-164-32-255-1-111 0-121 41-241 55-162 85-377 75-550-7-131 6-181 57-224 40-34 120-52 155-34 44 21 67 61 71 125 6 83 10 98 39 132 31 37 81 42 109 11 18-20 18-60-1-196-7-52 14-74 48-52 28 18 47 87 80 280 21 130 23 137 48 141 14 3 106 6 205 7 99 0 195 3 213 5 33 4 34 3 72-78 107-230 172-476 210-802 12-99 28-203 36-231 24-85 79-163 208-294 115-117 125-131 164-221 23-53 42-101 42-107s10-32 21-59c43-98 181-545 245-793 96-378 104-454 63-593-30-100-54-152-115-247-31-47-75-120-99-162l-43-78h36c21-1 120-3 221-7 177-5 184-5 177 13-4 11-21 64-37 119-39 130-35 166 29 258 83 121 84 124 77 200-4 38-15 119-26 180-20 117-53 490-64 732-15 322 49 622 203 952 33 70 65 144 72 165 13 43 55 88 82 88 25 0 68-44 68-69 0-11-27-71-60-134-33-64-60-122-60-131 0-19-18-18 345-16 294 1 430 10 662 45 89 14 193 26 231 27 63 1 73-1 115-31l45-33 144 32c180 40 193 46 165 80-25 31-47 42-108 50-72 10-109 38-109 82 0 21 6 31 26 38 71 27 198-8 266-73 89-85 130-173 188-396 66-254 193-452 404-625 166-137 279-277 310-387 9-30 20-85 25-124 50-360 71-550 71-642 0-77-66-204-128-246-60-41-87-69-139-145l-43-62h94c51 0 155-3 232-6 120-5 136-4 121 7-15 12-18 32-20 124-2 133 12 187 79 298 55 93 57 110 21 257-14 58-33 182-43 276-16 170-16 171 6 283 12 64 19 123 15 139-3 15-31 68-61 118-61 103-168 333-205 439-19 57-24 89-23 170 1 123 26 202 119 379 71 134 117 250 161 401 26 90 28 115 29 250 0 177-22 305-71 412-34 73-32 91 14 110 48 20 165 20 213-1 49-20 91-64 120-123 20-42 23-62 23-158 0-110 0-111-72-326-113-342-120-424-47-569 63-125 60-164-24-297-40-62-50-105-39-158 16-71 84-145 135-145 20 0 21 6 22 76 1 132 40 191 181 274 169 100 204 154 181 278-7 37-30 109-52 159-21 51-39 105-39 121 0 55 30 142 78 226 61 106 110 240 120 326 4 36 4 106 1 155-11 165-76 278-211 367-162 107-339 98-574-28-56-30-115-54-130-54-21 0-41 14-83 59-77 81-116 107-202 137-126 43-198 56-314 55-114 0-391-24-473-41-114-24-715-90-814-90-115 0-268 18-439 52l-107 20 62 42c192 131 257 401 129 530-55 55-115 94-160 104-43 10-80 0-89-23-13-34 6-63 71-103 78-49 105-89 105-154 0-97-53-189-143-251-215-148-407-115-613 106-38 41-114 137-169 213-331 461-450 573-730 692-131 55-207 79-360 112-137 30-169 42-174 65-6 33 26 45 123 45 190 0 352-39 541-129 144-69 225-128 357-264 65-66 120-118 123-115 7 7-25 88-66 170-67 133-125 190-219 214-31 8-48 18-56 35-6 13-19 40-29 60-30 65-67 84-170 87-84 3-96 6-180 48-139 69-287 85-380 39zm-157-699c33-28 82-117 106-191 23-72 37-284 25-381l-10-79 40-80c45-89 94-205 89-210-2-2-93-7-202-11l-199-7 5 60c4 53 9 67 46 111 87 104 114 225 94 426-16 156-33 217-78 283-39 56-39 78-2 93 37 14 55 11 86-14zm-660-482c47-30 54-89 16-133-53-63-154-28-154 53 0 91 63 128 138 80zm73-845c27-14 42-55 29-80-15-26-73-26-100 1-50 50 7 114 71 79z"/><path d="m20114 7028c-56-52-74-85-74-137 0-55 18-91 46-91 18 0 29 13 52 63 44 92 64 165 51 188-14 27-24 24-75-23z"/><path d="m13055 6520c-42-27-38-42 16-55 113-29 199-97 199-158 0-51-26-196-50-283-13-45-23-109-24-149 0-65 3-75 42-141 23-39 42-83 42-99s7-67 16-114c18-94 15-248-7-378-15-89-7-134 33-178 46-53 120-66 133-23 8 24-9 45-52 63-38 16-58 52-49 90 7 27 39 45 82 45 23 0 24 2 24 73 0 151-19 282-59 404-38 117-38 118-82 139-90 45-116 115-60 170 15 16 38 36 50 44 18 12 29 45 56 165 37 158 45 265 22 284-8 6-42 20-78 31-35 11-90 35-122 55-66 40-90 43-132 15z"/><path d="m19343 6303c-11-2-48-35-82-72l-61-69 16-53c20-69 91-176 152-230 26-23 76-56 112-73 59-28 74-31 162-31 91 0 99 2 140 30 107 76 120 214 25 270-21 13-54 19-112 20-67 1-88 5-113 24-34 24-110 113-139 162-17 29-39 34-100 22zm22-90c9-9 32-48 51-87 37-79 91-137 143-155 19-6 69-11 113-11 62 0 80-3 85-16 16-42-82-67-176-44-99 24-178 102-240 240-34 76-20 118 24 73z"/><path d="m15870 6263c0-37 33-89 67-106 15-8 65-26 110-41 118-37 402-61 418-36 7 12-8 37-52 88-30 34-28 34-183 47-83 7-235 40-286 61-53 22-74 19-74-13z"/><path d="m20717 6284c-3-3-115-9-249-13-214-6-248-10-288-28-64-29-89-61-96-120s12-134 61-238c41-88 115-197 142-210 12-6 28-17 37-24 12-10 36-12 100-6l85 7 37-52c60-83 122-102 241-74l74 17 30-36c16-20 55-48 87-64 55-27 63-28 202-28 248 1 440 60 440 137 0 59-508 555-703 685-72 49-83 53-136 53-32 0-60-3-64-6z"/><path d="m15997 6073c-17-16-4-45 41-91 64-66 111-80 292-89 247-13 257-11 246 51-12 62-37 72-193 79-115 5-295 30-363 52-9 3-19 2-23-2z"/><path d="m4485 5929c-88-13-189-45-278-89-427-213-605-766-386-1201 149-297 450-464 804-445 203 10 434 60 595 129l75 32 5 221c4 190 7 224 23 247 24 37 72 65 124 73 37 5 43 10 43 30v24h-358c-197 0-361-3-364-6s-4-13-1-23c4-16 18-19 102-23 111-4 152-22 186-78 18-32 20-55 23-246l3-211-60-27c-108-48-205-68-336-70-107-1-129 2-209 28-112 37-212 102-297 194-129 139-188 298-196 527-4 117-2 157 16 241 62 300 225 503 465 580 107 35 279 44 379 20 187-44 306-154 369-341 23-70 30-80 52-83l26-3v222 221l-27-6c-16-4-40-10-54-13-14-2-75 9-137 26-206 57-414 75-587 50z"/><path d="m30 5875c0-14 2-25 4-25 25 0 115-24 133-35 55-37 54-18 53-751 0-589-2-680-16-706-20-39-84-67-151-68-50 0-53-2-53-25 0-14 6-25 13-25 45-1 607-1 630-1 22 1 27 6 27 25 0 21-5 24-62 29-69 6-102 26-133 78-19 32-20 55-23 347l-3 312h526 526l-3-312c-3-283-5-317-22-351-27-55-64-70-179-75l-98-4 3-26 3-26 377-1h378v26c0 26-2 27-70 31-81 4-115 24-145 84-19 38-20 59-20 699 0 600 2 663 17 691 24 45 42 56 116 74 55 13 66 20 67 38l2 22h-346-347l-2-24c-1-22 2-23 79-29 94-8 134-26 164-77 19-33 20-54 23-337l3-303h-526-526l3 298c3 253 6 303 20 334 22 48 66 75 139 83 54 6 59 9 59 31v24h-320-320z"/><path d="m2030 5876c0-21 6-24 71-35 144-24 177-57 388-386 230-357 232-361 312-485l74-115v-220c0-199-2-224-20-260-28-56-71-78-166-83-77-4-79-5-79-31v-26l368 1 367 1v24c0 23-4 24-72 30-90 8-135 34-157 89-13 33-16 83-16 275 0 230 1 236 23 273 13 20 62 102 109 182 373 634 381 646 475 694 27 13 77 30 111 36 55 11 62 15 62 36v24h-305-305v-24c0-21 6-24 57-31 106-13 136-47 110-122-8-21-72-137-143-258-72-121-159-270-194-332-36-62-67-112-70-112s-27 34-53 77c-26 42-122 192-213 332-183 281-204 318-204 354 0 33 36 51 118 61 66 7 76 13 66 39-5 14-46 16-360 16h-354z"/><path d="m5560 5876c0-19 7-26 30-30 17-3 44-9 60-12 52-10 87-48 100-108 7-37 10-252 8-687-3-598-4-636-22-672-22-45-58-66-127-74-45-5-49-8-49-32v-26h325 325v28c0 25-3 27-43 27-101 0-160 41-177 125-7 34-10 260-8 681 3 562 5 633 20 666 22 49 55 68 138 81 63 10 70 14 70 34v23h-325-325z"/><path d="m6380 5876c0-22 5-23 77-30 87-7 137-28 167-69 21-28 21-37 21-707 0-674 0-679-21-707-39-52-79-67-191-71l-103-4v-27-26l707 3c389 1 708 4 709 5 6 6 43 380 39 388-3 4-15 5-27 0-14-5-29-31-48-83-38-105-79-161-137-190-46-22-58-23-313-26-291-4-327 1-363 50-20 27-21 41-20 345l1 318 238 3c345 4 347 3 388-180 5-21 12-28 31-28h25v255 255h-24c-26 0-36-16-36-58-1-45-36-109-69-127-26-13-69-15-290-13l-260 3-3 320-3 320h317 317l35-34c39-38 70-108 81-184 7-45 9-48 34-45 14 2 25 8 25 13-1 6-5 80-9 165-3 85-9 163-11 173-5 16-44 17-645 17h-639z"/><path d="m7915 5878c1-20 11-25 66-36 35-7 84-23 109-35l45-22v-690c0-561-3-696-14-722-19-47-70-74-147-81-63-5-65-6-62-31l3-25 307-1h308v28c0 26-1 27-57 27-123 0-185 38-202 123-8 35-10 252-9 649l3 598 560-587c796-833 825-862 855-858 14 2 28 4 33 4 4 1 7 349 7 774 0 698 2 775 16 796 23 32 66 48 152 56 67 7 72 9 72 31v24h-315-315v-24c0-22 5-24 85-34 104-14 141-32 163-80 15-33 17-98 19-599 1-310-2-563-6-563s-287 293-630 650l-623 650h-212-213z"/><path d="m10080 5876c0-22 4-23 81-29 89-7 129-24 163-70 21-28 21-36 24-680 2-359 0-667-3-685-9-49-57-98-109-111-25-6-81-11-125-11-81 0-97-7-87-38 5-16 50-17 716-17 505 0 710 3 710 11 0 6 9 93 20 194 11 100 19 184 18 185-2 2-11 5-22 7-21 4-25-2-61-99-35-96-73-145-132-174-46-23-58-24-297-27-293-4-329-1-368 38l-28 28v327 326l263-3c235-3 266-5 291-21 31-20 52-65 65-133 10-51 8-49 39-58l22-7v260 261h-25c-20 0-25-6-30-37-12-73-36-124-69-144-28-17-53-19-293-19h-263v325 325h303c275 0 305-2 337-19 43-23 86-102 103-189 11-58 13-62 39-62h27l-5 68c-2 37-7 92-9 122s-4 83-5 118v62h-645-645z"/><path d="m19990 5655c-11-13-32-143-25-155 1-3 6-84 9-180 4-96 9-188 11-205 3-16 9-111 15-210s12-209 15-245c2-36 7-177 10-315 6-253 11-322 24-344 6-9 28-6 92 13 223 64 417 77 641 41l46-7 22 43c33 64 112 169 169 222 88 82 196 143 403 226 210 84 289 129 360 203 60 64 81 117 76 198-3 59-8 74-34 107-97 120-215 137-529 74-82-16-211-37-285-47-426-53-640 64-838 458-46 94-89 138-134 138-20 0-41-7-48-15zm1617-635c15 0 38-13 59-34 40-40 46-92 15-142-29-48-146-118-319-192-231-99-382-193-504-317-34-35-63-55-71-52-11 4-16 35-21 119-4 62-9 142-11 178-21 317-22 311 67 329 147 30 341 63 498 85 233 33 233 33 248 29 8-1 25-3 39-3z"/><path d="m21150 4828c-103-17-245-50-256-59-8-7-10-38-7-97 3-48 7-89 9-91s54 21 116 52c62 30 145 67 183 82 39 15 74 31 79 35 12 11-12 77-30 84s-19 7-94-6z"/><path d="m20412 5473c-37-7-37-30 2-81 110-141 241-195 471-194 256 1 414 67 203 85-78 7-170 34-222 66-27 17-48 20-137 18-114-2-139 7-233 82-21 17-44 30-50 30-6-1-21-4-34-6z"/><path d="m21295 4349c-150-85-252-178-304-275-32-59-28-75 26-104 112-59 204-129 313-239 193-192 284-347 350-596 60-226 84-212 249 154 78 173 78 174-13 306-118 173-378 590-437 702-41 79-59 103-74 103-12 0-61-23-110-51z"/><path d="m17272 3973c-13-3-26-11-28-18-3-7 4-55 15-107 33-153 42-246 42-434 0-193-14-316-56-494-21-88-45-145-149-355-69-137-155-313-191-390-64-133-72-144-154-225-51-49-111-121-143-170-30-47-62-93-72-102-17-17-16-18 21-18 21 0 119-3 218-7 158-5 178-4 167 9-19 24-45 154-38 194 10 50 69 110 147 149 65 33 79 48 79 85 0 25 110 299 175 436 59 126 122 228 195 315 28 33 51 70 52 82s2 76 3 142 7 154 14 195c22 126 86 306 161 450 123 237 134 259 128 265-3 3-75-12-160-33-165-43-197-44-238-7-14 12-35 28-47 34-21 11-94 13-141 4z"/><path d="m14768 3894c-62-42-131-91-153-108-22-18-85-63-140-100-112-77-170-128-191-168-18-35-18-124 1-213 53-248 69-517 40-668-36-188-10-278 143-492 35-49 68-90 73-90 11 0 120 153 151 212 30 56 20 71-63 101-69 25-133 78-144 119-7 31 22 80 65 108 41 27 44 42 21 108-26 75-29 106-36 358-7 235-1 285 40 323 29 27 232 113 404 171 146 50 190 69 197 89 2 6-3 30-11 52-20 46-241 274-267 274-10 0-68-34-130-76z"/><path d="m20350 3930c-92-16-243-61-317-95-230-106-457-369-542-625-85-261-93-572-21-792 36-107 98-234 155-313 51-71 210-228 278-274 148-101 406-186 622-205l71-7 214 161c118 89 216 167 218 174 2 8-38-7-95-35-143-71-230-92-388-93-115-1-141 2-225 27-296 89-518 264-620 491-102 229-120 458-55 704 94 355 308 587 617 672 148 40 353 42 499 5 85-21 233-94 291-143 138-116 279-348 344-567 23-80 26-108 27-245 0-173-17-278-69-415l-7-20 22 20c33 28 180 241 205 295 15 34 21 72 24 150 13 373-245 830-571 1009-133 73-197 97-301 116-92 16-296 19-376 5z"/><path d="m450 3759c-196-37-279-237-176-423 41-76 41-76 21-76-30 0-121-48-165-88-139-123-171-372-74-564 95-187 336-299 580-269 140 17 261 71 385 172l26 21 84-67c153-123 233-147 389-121 51 9 96 19 100 21 5 3 6 14 3 26-5 18-11 20-60 15-101-8-164 25-339 180l-83 74 25 54c27 59 49 154 64 274 10 79 25 106 65 116 16 4 22 11 19 21-9 22-364 22-364 1 0-15 10-19 68-31 77-16 120-108 109-237-6-69-32-138-55-146-18-6-520 501-602 608-39 52-83 117-97 144-63 124 4 246 133 246 113 0 234-76 296-187 20-36 36-53 50-53s18 5 14 18c-2 9-10 65-17 124-7 60-16 113-19 118-4 7-18 6-40-4-30-12-42-11-119 9-107 29-164 35-221 24zm-90-559c10-6 77-74 148-153 166-182 243-262 367-376l100-92-25-19c-48-38-152-82-225-95-127-22-225-7-338 53-160 83-277 260-277 417 0 163 148 320 250 265z"/><path d="m1460 3758c0-2-7-66-15-143-20-188-20-205 4-205 15 0 21 12 30 58 16 84 49 144 91 165 30 15 61 17 233 15l198-3v-570c0-374-3-579-10-597-18-48-65-68-158-68-82 0-83 0-83-25v-25h345 345v25c0 24-2 25-75 25-95 0-136 17-158 63-15 31-17 93-17 607v571l216-3 216-3 32-36c23-24 38-56 50-105 10-38 20-75 22-81 2-7 13-13 25-13 18 0 20 4 16 33-4 17-12 96-18 175-12 136-13 142-34 142-13 0-28-7-35-15-19-22-1136-23-1166 0-16 12-54 21-54 13z"/><path d="m4907 3750c-261-47-466-190-566-395-126-255-101-541 64-747 214-267 676-358 1005-199 187 91 314 232 383 428 30 83 32 97 32 233 0 116-4 156-19 200-34 101-86 182-170 265-68 68-98 89-186 132-58 28-134 59-170 68-75 19-301 28-373 15zm235-61c210-45 380-210 447-434 58-195 39-445-46-595-105-185-249-272-448-271-171 0-296 53-421 176-65 64-90 97-123 165-63 130-76 192-75 355 0 124 3 149 27 220 64 194 199 336 358 379 65 18 208 20 281 5z"/><path d="m8265 3754c-291-45-511-209-608-454-37-94-50-185-44-314 8-181 64-311 188-436 197-201 501-266 861-186 65 14 138 26 162 26 43 0 47 2 71 44 26 45 97 211 107 254 5 18 2 22-15 22-16 0-34-19-62-61-112-169-283-261-490-261-221 0-414 119-530 326-113 204-117 491-9 697 70 133 207 239 355 274 83 19 229 19 304 0 135-36 254-129 315-248 28-54 40-67 59-67 22 0 23 2 17 68-3 37-8 109-12 160-6 97-12 106-53 80-15-9-36-6-107 17-49 15-114 34-144 42-55 13-309 25-365 17z"/><path d="m9575 3743c4-10 7-25 7-33-1-25-411-1140-441-1200-35-68-64-90-132-98-45-6-54-10-54-27 0-19 8-20 253-23l252-2v25c0 24-3 25-60 25-61 0-128 20-142 43-4 7-8 22-8 34 0 16 112 331 165 466 7 16 25 17 232 15l225-3 84-228c46-125 84-241 84-256 0-49-31-66-130-69-67-3-90-8-94-19-3-8-4-19 0-24 3-5 136-9 305-9h299v24c0 21-5 24-51 28-56 6-95 30-121 74-10 16-122 308-251 649l-233 620-98 3c-91 3-98 1-91-15zm158-413c47-124 89-233 92-242 7-17-6-18-180-18s-187 1-180 18c4 9 40 107 80 217 91 248 95 259 99 254 2-2 43-105 89-229z"/><path d="m3189 3746c-4-3-241-16-311-16-33 0-38-3-38-23s5-22 63-25c76-4 118-26 134-72 15-45 18-1057 3-1111-17-60-50-83-130-87-66-4-70-6-70-28v-24h310 310v25c0 24-3 25-60 25-33 0-76 6-95 14-58 25-63 46-66 291l-3 220 129 2 130 1 54-41c30-23 150-134 266-247 180-176 221-210 285-243 96-48 187-67 328-67 103 0 112 1 112 19 0 15-12 21-67 31-38 8-105 32-156 58-83 41-105 60-306 256-119 116-238 228-264 250-45 37-58 56-37 56 26 0 107 48 154 91 78 71 111 148 111 259 0 71-4 94-27 142-34 73-94 130-182 173-105 51-193 67-397 71-97 2-178 2-180 0zm372-75c90-35 133-71 169-145 26-52 33-81 37-149 12-185-58-311-203-368-51-19-78-23-192-23l-132-1-3 359-2 358 135-4c108-4 146-9 191-27z"/><path d="m6070 3740c-80-4-171-8-202-9-51-1-58-3-58-21 0-15 7-20 28-21 106-4 138-10 160-32l23-23-1-582c0-399-3-589-10-603-15-26-50-39-111-39-46 0-49-2-49-25v-25h305 305v25c0 24-2 25-72 25-89 0-136 20-160 70-16 30-18 66-18 256v221l43-8c69-13 223-10 305 7 202 41 330 159 361 331 22 118-20 255-99 327-127 114-330 149-750 126zm475-68c69-32 121-85 146-152 57-153 21-330-89-435-79-75-219-116-330-95-31 5-57 10-59 10-7 0-2 687 5 694 4 5 68 6 142 4 113-3 143-8 185-26z"/><path d="m7020 3705c0-21 5-25 30-25 53 0 99-26 115-64 23-55 22-1093-1-1141-17-37-66-65-113-65-26 0-31-4-31-25v-25h265 265v25c0 23-4 25-41 25-59 0-108 27-128 69-14 32-16 98-16 566 0 479 2 534 17 568 20 44 65 67 128 67 36 0 40 2 40 25v25h-265-265z"/><path d="m10460 3707c0-22 5-24 51-26 28-1 66-8 85-16 64-27 64-22 64-623 0-369-4-549-11-571-15-43-54-61-134-61-63 0-65-1-65-25v-25l491 2 491 3 80 150c98 183 93 172 68 170-14-1-38-24-66-61-63-84-124-144-164-163-27-12-76-16-226-18-223-3-257 4-273 49-8 23-11 194-9 573 3 502 4 543 21 568 24 36 44 43 151 50 49 4 90 8 93 10 2 2 1 12-3 21-6 14-38 16-325 16h-319z"/><path d="m17979 3673c-5-122 16-199 118-433 60-138 86-211 90-251l5-56-132-259c-169-329-167-314-65-524 39-79 88-169 110-199 23-31 58-82 79-113 51-78 57-77 123 12 22 30 57 75 77 100 58 73 48 90-64 105-94 13-156 57-173 124-5 19 1 32 28 57 42 39 44 62 9 114-38 57-29 114 37 250 55 114 85 159 195 296 41 50 74 96 74 102s-49 60-108 119c-89 90-126 137-217 278-60 94-123 202-140 242-16 40-33 73-37 73-5 0-9-17-9-37z"/><path d="m20416 3595c-9-9-14-20-12-23 4-7 29-250 42-407 3-44 11-86 16-92 17-21 57-15 68 10 10 23 43 369 44 467l1 55-71 3c-56 2-75-1-88-13z"/><path d="m20752 3597c-15-19-22-46-42-152-36-187-53-372-39-412 8-21 15-23 73-23 35 0 78 3 96 6l32 7-6 206c-9 266-14 333-29 349-21 20-75 32-85 19z"/><path d="m20178 3580c-14-4-41-16-58-26l-32-19 7-214c4-117 10-234 14-260l6-46 75-5c41-3 86-3 100 0l25 7-2 149c-3 153-14 258-38 353-18 71-33 80-97 61z"/><path d="m15080 3455c-133-51-218-91-253-117-29-22-27-52 9-169s71-298 99-504c9-66 25-138 34-160 21-45 218-265 238-265 25 0 149 286 132 306-5 6-43 14-84 17-73 7-139 31-162 59-25 31-24 58 3 118l26 59-31 93c-32 97-51 203-51 286 0 71 30 111 105 140 91 34 129 55 133 74 4 23-38 118-52 117-6-1-72-25-146-54z"/><path d="m21004 3368c3-46 12-126 20-178 13-82 18-98 42-119 25-21 34-22 86-17 76 9 88 14 88 37 0 63-187 359-227 359-14 0-15-11-9-82z"/><path d="m20455 2950c-49-11-71-27-90-66-29-62-4-140 56-172 14-7 44-11 72-9 94 8 142 98 98 184-11 22-28 44-38 48-42 17-70 21-98 15zm50-60c53-20 53-113-1-126-73-18-126 64-74 116 22 22 37 24 75 10z"/><path d="m21185 2898c-22-5-131-20-241-32-111-13-206-26-213-30-12-8-15-72-3-80 4-2 64-7 132-11 69-4 187-13 262-20 76-8 144-12 152-9 24 9 28 82 10 172-5 25-29 27-99 10z"/><path d="m19760 2890c-18-11-27-186-11-209 8-13 23-12 108 7 54 12 165 29 248 38 87 9 153 20 157 27 12 19 9 61-4 80-10 14-46 20-173 32-88 9-191 20-230 25-86 12-77 11-95 0z"/><path d="m17651 2785c-111-105-232-306-309-515-79-211-83-232-80-366 3-116 3-118 28-125 47-13 365-10 382 4 13 10 17 44 22 172 8 193 13 299 26 510 19 322 21 385 11 385-6 0-42-29-80-65z"/><path d="m20454 2572c-20-3-22-10-28-175-4-95-14-223-22-286s-11-118-7-122c9-9 50-11 157-10l79 1-6 43c-3 23-15 103-25 177-11 74-23 171-27 215-7 86-21 154-33 156-24 4-70 4-88 1z"/><path d="m6656 1889c-290-42-524-199-640-431-68-138-81-195-81-373 0-163 9-207 65-328 165-358 602-522 1080-406 47 11 122 23 166 26l82 6 50 106c94 195 110 253 71 246-12-3-23-6-24-7-1-2-18-29-39-60-55-84-162-180-248-222-100-49-175-66-288-66-195 0-326 55-465 195-102 102-158 196-197 330-20 68-23 103-23 235 0 135 3 165 23 230 57 182 168 322 312 392 287 141 639 65 793-170 24-37 50-82 57-99 9-25 18-33 38-33h25l-7 103c-17 259-17 259-40 252-52-17-78-14-182 18-60 20-137 40-170 47-76 14-282 20-358 9z"/><path d="m3798 1875c-2-2-57-5-123-6-184-4-202-7-200-32 1-20 9-23 76-28 86-6 112-18 136-62 17-30 18-79 18-642 0-566-1-613-18-638-25-39-73-59-148-65-55-4-66-7-64-21 2-9 4-19 4-23 1-12 815-9 911 2 320 39 558 203 684 471 120 254 93 553-69 757-84 106-201 184-352 232-159 51-246 60-565 59-157 0-288-2-290-4zm527-57c172-24 302-83 400-182 103-104 161-229 186-396 47-323-106-646-366-769-101-49-199-65-385-66-195 0-224 8-240 64-7 24-10 257-8 696l3 660 80 5c106 7 232 2 330-12z"/><path d="m72 1838c2-18 12-24 48-30 27-5 54-18 70-33l25-25v-628c0-582-1-630-18-655-23-36-68-58-133-64-49-5-54-8-54-29v-24h280 280v24c0 22-5 24-71 29-41 3-84 14-102 24-63 37-62 21-64 643l-2 565 34-70c19-38 63-128 97-200 71-150 137-287 308-645 67-140 133-281 147-312 23-51 30-58 55-58 33 0 1-65 388 768 129 276 237 502 240 502s4-252 3-560c-2-618-1-603-66-637-19-10-64-18-114-21-79-4-83-6-83-28v-24h339c301 0 340 2 345 16 10 25 0 31-64 37-66 6-100 23-127 64-17 25-18 71-18 643 0 577 1 617 18 642 20 30 82 58 127 58 25 0 30 4 30 25v25h-195-194l-34-72c-19-40-129-271-244-513s-229-482-253-532c-24-51-46-93-49-93s-53 101-111 223c-57 122-147 310-198 417-52 107-109 227-127 265-18 39-58 123-89 188l-55 117h-186-186z"/><path d="m2100 1836c0-23 3-24 79-27 61-3 86-9 108-25 60-44 58-24 58-679 0-547-2-603-17-631-23-41-73-64-158-71-65-5-70-8-70-29v-24h619 620l5 43c3 23 10 87 16 142s13 117 16 137c5 35 4 38-19 38-22 0-28-8-47-65-29-87-76-154-125-179-37-19-60-21-285-24-163-2-258 0-283 8-64 19-67 37-67 360v281l246-3 246-3 28-32c19-21 33-53 42-93 10-52 15-60 35-60h23v230 230h-24c-20 0-24-6-30-47-8-59-38-110-72-123-14-6-131-10-260-10h-234v295 295h275c302 0 314-2 354-59 12-16 31-65 43-110 17-67 25-81 41-81 19 0 20 5 14 133-4 72-7 149-7 170v37h-585-585z"/><path d="m5257 1836c4-20 13-25 55-30 39-5 59-15 84-40 28-28 33-40 39-106 12-134 1-1152-12-1182-16-35-65-66-120-74-23-3-44-12-46-18-13-34 6-36 299-34 281 3 289 4 289 23 0 16-9 21-53 27-66 10-107 30-129 65-17 25-18 72-18 638 0 567 1 613 18 638 26 40 62 59 125 66 48 5 57 9 57 26 0 19-8 20-296 23l-296 2z"/><path d="m7567 1840c-6-24-4-26 56-34 61-9 105-47 117-101 13-57 13-1131-1-1193-13-64-42-90-115-105-53-11-59-14-56-34l3-23h295 294v24c0 21-5 24-55 29-31 3-70 14-88 24-64 38-62 17-62 678 0 654-2 635 57 678 18 14 49 22 88 25 55 4 60 6 60 28v24h-294c-285 0-294-1-299-20z"/><path d="m8290 1836c0-21 6-24 52-29 28-4 72-17 97-29l46-23v-632c0-625 0-632-21-660-27-37-63-53-129-60-50-5-55-8-55-29v-24h285 285v24c0 21-5 24-69 29-90 7-135 27-158 69-17 31-18 74-21 603l-3 570 64-65c36-36 266-276 512-535 700-734 675-709 713-710l32-2v703 703l23 26c24 29 77 44 150 45 43 0 47 2 47 25v25h-285-285v-25c0-23 4-25 46-25 114 0 177-41 189-123 3-23 5-260 3-526l-3-484-565 591-565 590-192 1-193 1z"/><path d="m10210 1836c0-23 3-24 79-27 61-3 86-9 108-25 60-44 58-24 58-679 0-586 0-601-20-635-27-46-92-69-197-70-76 0-78-1-78-25v-25h645 644l5 33c6 34 36 311 36 326 0 4-11 6-25 3-17-3-27-13-31-31-4-14-22-58-40-98-39-82-77-117-144-132-60-14-474-14-523 0-64 17-67 35-67 359v281l246-3 246-3 28-32c19-21 33-53 42-93 10-52 15-60 35-60h23v230 230h-25c-19 0-25-5-25-22 0-45-22-102-50-130l-28-28h-246-246v295 295h278c260 0 279-1 310-20 38-23 76-96 93-177 8-42 14-53 30-53 22 0 23 19 12 218l-6 122h-584-583z"/><path d="m16301 1364c-60-16-93-34-192-106-94-68-142-88-216-88-114 0-236 33-396 108-53 25-100 43-103 40-8-9 171-184 239-234 84-63 199-104 287-104 128 0 208 40 385 194 108 94 101 91 238 87 80-2 87 12 33 63-58 56-162 71-275 40z"/><path d="m17255 1353c-147-30-250-103-392-280-107-134-124-143-248-143-55 0-106-4-114-9-26-17 35-82 119-127 25-13 57-18 111-18 68-1 84 3 155 38s96 56 244 206c140 141 176 172 235 201s82 34 149 37c44 1 82 5 85 8 9 8-38 42-94 69-63 31-155 37-250 18z"/><path d="m18225 1352c-138-42-252-121-413-287-134-138-149-144-314-145-147 0-156-7-91-66 69-63 125-84 227-84 200 1 246 29 538 338 118 124 167 152 272 152 89 0 156-18 340-92 184-73 296-99 433-100 125 0 203 22 203 57 0 8-25 15-72 20-84 8-108 18-108 46 0 24 25 34 107 44 34 4 69 12 78 19 16 11 15 14-6 27-78 51-202 59-399 29-173-27-238-23-395 20-144 40-309 49-400 22z"/><path d="m19541 1215c-118-16-105-32 51-60 56-11 88 0 88 30 0 41-26 47-139 30z"/><path d="m16527 1159c-39-9-133-64-155-91s4-33 158-35l144-3 48 51c53 57 59 74 26 83-33 8-177 5-221-5z"/><path d="m17444 1137c-59-23-127-87-110-104 2-3 58-7 124-10 130-6 138-4 210 56 47 40 52 56 20 65-39 10-211 5-244-7z"/><path d="m18304 1079c-86-82-80-87 124-90 150-3 152-2 152 68 0 73 0 73-117 73h-104z"/></g></svg>
