<svg xmlns="http://www.w3.org/2000/svg" xml:space="preserve" fill-rule="evenodd" stroke-linejoin="round" stroke-miterlimit="2" clip-rule="evenodd" viewBox="0 0 387 158"><path fill="#00224a" fill-rule="nonzero" d="M30.463 126.875h-3.182v-16.11H10.526v16.11H7.344V93.712h3.182v14.369H27.28V93.712h3.182v33.163Zm26.451 0H39.015V93.712h17.501v2.685H42.147v11.783h13.474v2.636H42.147v13.275h14.767v2.784Zm31.522 0h-3.381l-3.381-9.497H67.206l-3.381 9.497h-3.182l12.082-33.163h3.58l12.13 33.163Zm-7.707-12.231-6.314-17.6-6.265 17.6h12.58Zm29.981 12.231H93.259V93.712h3.182v30.379h14.269v2.784Zm21.18-30.478h-10.043v30.478h-3.182V96.397h-10.043v-2.685h23.268v2.685Zm28.987 30.478h-3.182v-16.11h-16.756v16.11h-3.182V93.712h3.182v14.369h16.756V93.712h3.182v33.163Zm43.607-9.099c0 2.884-.895 5.205-2.685 6.96-1.89 1.86-4.506 2.785-7.856 2.785-3.679 0-6.892-1.174-9.645-3.53l1.64-2.287c2.853 1.989 5.454 2.983 7.806 2.983 2.387 0 4.227-.603 5.52-1.815 1.292-1.208 1.938-2.824 1.938-4.847 0-1.458-.562-2.75-1.69-3.878-.96-.96-2.965-2.095-6.016-3.406-3.049-1.308-5.152-2.542-6.314-3.704-1.324-1.324-1.99-3.132-1.99-5.42 0-2.485.905-4.524 2.71-6.115 1.809-1.591 4.17-2.386 7.085-2.386 3.748 0 6.78 1.177 9.1 3.53l-1.691 1.988c-2.22-1.855-4.606-2.784-7.16-2.784-2.054 0-3.729.54-5.022 1.616-1.292 1.078-1.939 2.446-1.939 4.102 0 1.327.466 2.455 1.392 3.38.93.93 2.803 1.99 5.619 3.183 3.017 1.261 5.105 2.355 6.264 3.281 1.958 1.66 2.934 3.779 2.934 6.364Zm30.605 6.514c-.463.497-1.492 1.078-3.083 1.74-2.352.963-4.854 1.441-7.508 1.441-4.474 0-8.154-1.472-11.037-4.425-3.049-3.113-4.574-7.274-4.574-12.479 0-5.37 1.59-9.677 4.773-12.927 2.983-3.048 6.761-4.574 11.336-4.574 2.486 0 4.757.382 6.811 1.143 1.392.532 2.356 1.063 2.884 1.591l-1.442 2.337C231.26 96.714 228.594 96 225.244 96c-3.71 0-6.793 1.262-9.248 3.779-2.585 2.62-3.878 6.084-3.878 10.391 0 4.376 1.162 7.865 3.48 10.466 2.322 2.604 5.42 3.903 9.298 3.903 2.753 0 5.653-.845 8.701-2.536l1.492 2.287Zm4.786-30.578h3.182v33.163h-3.182zm28.268 33.163h-17.899V93.712h17.502v2.685h-14.37v11.783h13.475v2.636h-13.474v13.275h14.766v2.784Zm29.832 0h-3.63l-16.506-28.49.099 28.49h-2.933V93.712h3.48l16.656 28.738-.1-28.738h2.934v33.163Zm31.848-2.585c-.463.497-1.492 1.078-3.083 1.74-2.352.963-4.854 1.441-7.508 1.441-4.474 0-8.154-1.472-11.037-4.425-3.049-3.113-4.574-7.274-4.574-12.479 0-5.37 1.59-9.677 4.773-12.927 2.983-3.048 6.761-4.574 11.336-4.574 2.486 0 4.757.382 6.811 1.143 1.392.532 2.356 1.063 2.884 1.591l-1.442 2.337c-1.989-1.423-4.655-2.138-8.005-2.138-3.71 0-6.793 1.262-9.248 3.779-2.585 2.62-3.878 6.084-3.878 10.391 0 4.376 1.162 7.865 3.48 10.466 2.322 2.604 5.42 3.903 9.298 3.903 2.753 0 5.653-.845 8.701-2.536l1.492 2.287Zm23.367 2.585h-17.898V93.712h17.5v2.685h-14.368v11.783h13.474v2.636h-13.474v13.275h14.767v2.784Zm25.208-9.099c0 2.884-.895 5.205-2.685 6.96-1.889 1.86-4.505 2.785-7.855 2.785-3.68 0-6.893-1.174-9.646-3.53l1.64-2.287c2.854 1.989 5.455 2.983 7.807 2.983 2.386 0 4.226-.603 5.519-1.815 1.292-1.208 1.939-2.824 1.939-4.847 0-1.458-.563-2.75-1.69-3.878-.96-.96-2.965-2.095-6.017-3.406-3.048-1.308-5.152-2.542-6.314-3.704-1.324-1.324-1.989-3.132-1.989-5.42 0-2.485.904-4.524 2.71-6.115 1.808-1.591 4.17-2.386 7.085-2.386 3.747 0 6.78 1.177 9.098 3.53l-1.69 1.988c-2.219-1.855-4.605-2.784-7.16-2.784-2.054 0-3.729.54-5.021 1.616-1.293 1.078-1.94 2.446-1.94 4.102 0 1.327.467 2.455 1.393 3.38.929.93 2.803 1.99 5.618 3.183 3.017 1.261 5.106 2.355 6.265 3.281 1.957 1.66 2.933 3.779 2.933 6.364ZM31.36 52.671c0 3.346-1.05 6.07-3.15 8.17-1.496 1.495-3.293 2.51-5.394 3.044-1.459.356-3.577.534-6.354.534h-2.777v13.029H6.263V41.83h10.039c3.062 0 5.376.16 6.942.48 2.136.464 3.88 1.371 5.232 2.724 1.923 1.923 2.884 4.468 2.884 7.636Zm-7.636.32c0-1.744-.436-3.052-1.308-3.924-.872-.872-2.803-1.308-5.794-1.308h-2.937v10.626h2.617c3.168 0 5.197-.445 6.087-1.335.89-.89 1.335-2.243 1.335-4.058Zm42.185 24.457h-8.01l-4.325-9.665c-.926-2.1-1.851-3.417-2.777-3.952-.57-.32-1.709-.48-3.418-.48h-.854v14.097h-7.422V41.83h9.131c3.204 0 5.411.107 6.621.32 2.243.392 4.094 1.318 5.554 2.777 1.922 1.923 2.883 4.29 2.883 7.103 0 2.313-.64 4.271-1.922 5.873-1.389 1.745-3.364 2.813-5.927 3.204 1.637.142 3.061 1.121 4.271 2.937.392.605 1.157 2.172 2.297 4.699l3.898 8.704ZM55.763 52.404c0-1.495-.374-2.616-1.121-3.364-.605-.605-1.406-.979-2.403-1.121-.605-.107-1.78-.16-3.524-.16h-2.19v9.771h2.99c2.243 0 3.845-.48 4.807-1.441.96-.962 1.441-2.19 1.441-3.685ZM72.05 41.831h7.582v35.617h-7.583zm55.694 35.617h-7.102l-1.976-25.044-8.223 25.044h-6.195l-8.49-25.044-1.655 25.044h-6.675l3.204-35.617h8.116l8.971 25.792 8.49-25.792h8.117l3.418 35.617Zm38.339 0h-7.796l-2.616-7.423h-12.816l-2.616 7.423h-7.636l12.922-35.617h7.582l12.976 35.617Zm-12.388-13.243-4.485-14.31-4.486 14.31h8.971Zm44.908 13.243h-8.01l-4.325-9.665c-.926-2.1-1.851-3.417-2.777-3.952-.57-.32-1.709-.48-3.417-.48h-.855v14.097h-7.422V41.83h9.131c3.204 0 5.41.107 6.621.32 2.243.392 4.094 1.318 5.554 2.777 1.922 1.923 2.883 4.29 2.883 7.103 0 2.313-.64 4.271-1.922 5.873-1.389 1.745-3.364 2.813-5.927 3.204 1.637.142 3.06 1.121 4.272 2.937.39.605 1.157 2.172 2.296 4.699l3.898 8.704Zm-10.146-25.044c0-1.495-.373-2.616-1.121-3.364-.605-.605-1.406-.979-2.403-1.121-.605-.107-1.78-.16-3.524-.16h-2.19v9.771h2.99c2.243 0 3.845-.48 4.806-1.441.962-.962 1.442-2.19 1.442-3.685Zm42.024-10.573-11.213 21.413v14.204h-7.262V63.244l-11.214-21.413h7.69l7.528 15.432 7.53-15.432h6.941Zm49.607 32.039c-.783.784-2.011 1.566-3.684 2.35-2.92 1.388-6.07 2.082-9.452 2.082-5.126 0-9.344-1.637-12.655-4.912-3.417-3.382-5.126-7.867-5.126-13.457 0-5.802 1.797-10.448 5.393-13.937 3.453-3.346 7.903-5.019 13.35-5.019 3.381 0 6.354.641 8.917 1.923 1.352.676 2.403 1.406 3.15 2.188l-3.257 4.966c-2.527-1.815-5.358-2.723-8.49-2.723-3.311 0-6.034 1.068-8.17 3.204-2.207 2.243-3.311 5.216-3.311 8.918 0 3.702 1.006 6.675 3.017 8.917 2.012 2.243 4.708 3.364 8.09 3.364 1.958 0 3.987-.444 6.088-1.335.249-.142 1.245-.676 2.99-1.602l3.15 5.073Zm38.019 3.578h-7.795l-2.617-7.423h-12.816l-2.616 7.423h-7.636l12.922-35.617h7.583l12.975 35.617ZM305.72 64.205l-4.485-14.31-4.486 14.31h8.971Zm44.907 13.243h-8.01l-4.325-9.665c-.926-2.1-1.851-3.417-2.777-3.952-.57-.32-1.709-.48-3.417-.48h-.855v14.097h-7.422V41.83h9.131c3.204 0 5.411.107 6.621.32 2.243.392 4.095 1.318 5.554 2.777 1.922 1.923 2.883 4.29 2.883 7.103 0 2.313-.64 4.271-1.922 5.873-1.388 1.745-3.364 2.813-5.927 3.204 1.637.142 3.061 1.121 4.272 2.937.391.605 1.157 2.172 2.296 4.699l3.898 8.704ZM340.48 52.404c0-1.495-.373-2.616-1.121-3.364-.605-.605-1.406-.979-2.403-1.121-.605-.107-1.78-.16-3.524-.16h-2.19v9.771h2.99c2.243 0 3.845-.48 4.807-1.441.96-.962 1.441-2.19 1.441-3.685Zm38.288 25.044h-22V41.83h21.572v6.088h-14.097v8.277h13.243v5.98h-13.243v9.078h14.525v6.194ZM20.598 26.05H18.47L8.798 9.355l.058 16.695h-1.72V6.616h2.04l9.76 16.84-.057-16.84h1.719V26.05ZM40.76 15.969c0 2.642-.048 4.312-.146 5.011-.193 1.535-.718 2.73-1.574 3.584-1.223 1.223-2.902 1.835-5.04 1.835-2.136 0-3.835-.632-5.099-1.893-.796-.796-1.3-1.845-1.515-3.147-.116-.7-.175-2.107-.175-4.225V6.616h1.836v12.295c0 1.128.049 1.933.146 2.419.156.836.515 1.535 1.078 2.098.914.912 2.185 1.369 3.816 1.369 1.497 0 2.663-.417 3.497-1.253.64-.64 1.04-1.437 1.194-2.39.099-.64.146-2.059.146-4.253V6.616h1.835v9.353ZM57.367 8.19h-8.13v6.905h7.605v1.544h-7.604v9.41h-1.865V6.617h9.994V8.19Zm15.558 0h-8.129v6.905h7.605v1.544h-7.605v9.41h-1.864V6.617h9.993V8.19Zm5.565-1.574h1.865V26.05H78.49zM97.749 26.05H87.26V6.616h10.256V8.19h-8.42v6.905h7.895v1.544h-7.895v7.78h8.653v1.63Zm16.141 0h-10.227V6.616h1.865v17.802h8.362v1.632Zm20.89-9.819c0 3.03-.932 5.478-2.797 7.342a7.776 7.776 0 0 1-3.7 2.098c-1.029.253-2.573.379-4.633.379h-4.4V6.616h3.73c2.293 0 4.012.126 5.157.379 1.555.35 2.837 1.029 3.846 2.04 1.865 1.864 2.797 4.262 2.797 7.196Zm-1.894-.058c0-2.526-.766-4.555-2.301-6.09-.816-.815-1.807-1.349-2.972-1.602-.932-.213-2.457-.32-4.574-.32h-1.923v16.345h2.651c1.672 0 2.934-.097 3.788-.292a6.487 6.487 0 0 0 3.146-1.748c1.457-1.457 2.185-3.555 2.185-6.293Zm32.312.058c0 3.03-.932 5.478-2.797 7.342a7.776 7.776 0 0 1-3.7 2.098c-1.03.253-2.573.379-4.633.379h-4.4V6.616h3.73c2.293 0 4.012.126 5.157.379 1.555.35 2.837 1.029 3.846 2.04 1.865 1.864 2.797 4.262 2.797 7.196Zm-1.894-.058c0-2.526-.767-4.555-2.302-6.09-.815-.815-1.806-1.349-2.971-1.602-.933-.213-2.457-.32-4.575-.32h-1.923v16.345h2.652c1.671 0 2.933-.097 3.787-.292a6.487 6.487 0 0 0 3.147-1.748c1.457-1.457 2.185-3.555 2.185-6.293Zm18.385 9.877h-10.49V6.616h10.257V8.19h-8.42v6.905h7.895v1.544h-7.896v7.78h8.654v1.63Zm17.656-13.84c0 1.71-.514 3.08-1.544 4.108-.796.796-1.787 1.302-2.972 1.515-.621.117-1.845.175-3.671.175h-1.72v8.042h-1.835V6.616h4.429c1.418 0 2.487.079 3.205.233 1.049.213 1.894.641 2.535 1.282 1.048 1.05 1.573 2.41 1.573 4.08Zm-1.865-.029c0-1.262-.397-2.292-1.194-3.088-.446-.446-1.097-.729-1.952-.845-.485-.078-1.312-.117-2.477-.117h-2.418v8.362h1.602c1.497 0 2.506-.038 3.03-.116.933-.137 1.661-.466 2.186-.99.815-.817 1.223-1.886 1.223-3.206Zm19.521 13.869h-1.981l-1.981-5.565h-8.479l-1.981 5.565h-1.865l7.08-19.434h2.098l7.11 19.434Zm-4.516-7.168-3.7-10.314-3.671 10.314h7.371Zm21.998 7.168h-1.923l-2.215-4.982c-.717-1.632-1.373-2.652-1.966-3.06-.592-.408-1.676-.612-3.249-.612h-1.573v8.654h-1.836V6.616h3.992c1.613 0 2.738.058 3.38.175 1.03.195 1.875.621 2.534 1.282 1.01 1.01 1.515 2.31 1.515 3.904 0 1.36-.417 2.477-1.253 3.35-.834.875-1.864 1.37-3.088 1.487.565.038 1.069.282 1.515.728.448.446.932 1.262 1.457 2.447l2.71 6.06Zm-3.176-14.19c0-1.086-.32-1.951-.962-2.592-.542-.545-1.233-.884-2.068-1.02-.408-.078-1.184-.117-2.331-.117h-2.39v7.75h.554c1.69 0 2.788-.029 3.293-.087 1.223-.175 2.181-.606 2.87-1.297.69-.69 1.034-1.567 1.034-2.636Zm19.958-3.67h-5.886v17.86h-1.864V8.19h-5.886V6.616h13.636V8.19Zm24.707 17.86h-1.923l-1.836-16.724-6.03 16.724h-1.545l-6.09-16.724-1.777 16.724h-1.719l2.215-19.434h2.097l6.177 16.753 6.031-16.753h2.127l2.273 19.434Zm17.161 0h-10.49V6.616H292.9V8.19h-8.42v6.905h7.895v1.544h-7.896v7.78h8.654v1.63Zm19.375 0h-2.127l-9.673-16.695.058 16.695h-1.719V6.616h2.04l9.76 16.84-.058-16.84h1.719V26.05Zm18.967-17.86h-5.885v17.86h-1.865V8.19h-5.885V6.616h13.635V8.19Zm30.535 8.07c0 2.992-.805 5.428-2.419 7.313-1.611 1.885-3.71 2.826-6.293 2.826-2.448 0-4.476-.932-6.09-2.797-1.611-1.864-2.418-4.233-2.418-7.109 0-3.01.812-5.468 2.433-7.371 1.623-1.903 3.726-2.855 6.308-2.855 2.467 0 4.498.932 6.09 2.797 1.593 1.864 2.388 4.263 2.388 7.196Zm-1.982-.116c0-2.448-.626-4.438-1.879-5.973-1.253-1.535-2.859-2.302-4.822-2.302-1.981 0-3.57.767-4.764 2.302-1.194 1.535-1.792 3.563-1.792 6.09 0 2.485.627 4.53 1.88 6.132 1.253 1.603 2.84 2.404 4.763 2.404 2.022 0 3.628-.787 4.822-2.36 1.195-1.573 1.792-3.671 1.792-6.293Zm17.977-7.954h-8.129v6.905h7.604v1.544h-7.604v9.41h-1.865V6.617h9.994V8.19ZM22.24 155.238h-1.519l-1.45-13.21-4.764 13.21h-1.22l-4.81-13.21-1.404 13.21H5.715l1.75-15.351H9.12L14 153.121l4.764-13.234h1.68l1.795 15.351Zm12.06-5.984c0 .03-.008.138-.023.322a5.218 5.218 0 0 0-.023.415h-7.917c0 1.257.33 2.27.99 3.038.658.766 1.595 1.15 2.807 1.15.935 0 2.003-.299 3.2-.897l.621 1.059c-.092.122-.469.322-1.128.598-.92.352-1.857.53-2.808.53-1.58 0-2.828-.523-3.74-1.566-.913-1.044-1.369-2.416-1.369-4.12 0-1.78.456-3.203 1.37-4.269.911-1.067 2.136-1.6 3.67-1.6 1.304 0 2.348.46 3.13 1.381.813.967 1.22 2.286 1.22 3.96Zm-1.404-.437c0-.967-.215-1.795-.644-2.486-.538-.828-1.298-1.243-2.279-1.243-.982 0-1.81.337-2.485 1.013-.676.675-1.045 1.58-1.105 2.716h6.513Zm12.728 6.421h-1.266v-.828c-.875.704-1.95 1.058-3.222 1.058-1.459 0-2.633-.51-3.522-1.53-.89-1.022-1.334-2.368-1.334-4.04 0-1.764.506-3.203 1.519-4.315 1.012-1.113 2.316-1.668 3.912-1.668.981 0 1.818.207 2.509.621v-5.869h1.404v16.571Zm-1.404-2.071v-7.296c-.86-.492-1.696-.737-2.509-.737-1.197 0-2.163.44-2.9 1.324-.736.882-1.104 2.044-1.104 3.487 0 1.273.333 2.308 1 3.107.668.797 1.523 1.196 2.567 1.196.935 0 1.917-.36 2.946-1.081Zm6.237-12.705c0 .245-.09.46-.265.645a.873.873 0 0 1-.656.276.882.882 0 0 1-.644-.276.885.885 0 0 1-.276-.645.87.87 0 0 1 .276-.656.9.9 0 0 1 .644-.264.89.89 0 0 1 .656.264.891.891 0 0 1 .265.656Zm-.23 14.776h-1.381v-11.047h1.38v11.047Zm11.6-.874c-.124.152-.5.352-1.128.598a7.323 7.323 0 0 1-2.647.506c-1.55 0-2.808-.499-3.774-1.496-.967-.998-1.45-2.34-1.45-4.027 0-1.781.509-3.231 1.53-4.35 1.02-1.12 2.343-1.68 3.97-1.68.813 0 1.603.168 2.37.506.476.214.798.406.968.575l-.622.967c-.89-.538-1.818-.806-2.785-.806-1.182 0-2.144.433-2.888 1.3-.745.867-1.116 1.96-1.116 3.28 0 1.335.36 2.408 1.081 3.223.721.812 1.649 1.22 2.785 1.22.935 0 1.97-.285 3.107-.852l.599 1.036Zm9.689.874H70.25v-.828l-1.058.552c-.829.337-1.65.506-2.463.506-1.059 0-1.915-.31-2.566-.932-.653-.621-.978-1.431-.978-2.428 0-2.41 2.124-3.613 6.375-3.613h.575v-.415c0-1.166-.184-1.942-.552-2.324-.414-.43-1.114-.645-2.095-.645-1.012 0-2.034.29-3.06.875l-.576-.967c.168-.17.53-.368 1.082-.598a6.947 6.947 0 0 1 2.716-.53c1.288 0 2.285.353 2.992 1.06.398.398.651.888.759 1.472.076.353.115.92.115 1.703v7.112Zm-1.38-1.887v-3.729h-.622c-3.268 0-4.902.836-4.902 2.509 0 .598.19 1.089.575 1.473.429.429 1.05.644 1.864.644.767 0 1.795-.299 3.084-.897Zm4.441-14.684h1.381v16.571h-1.38zm18.988 12.359c0 1.335-.414 2.408-1.243 3.222-.875.86-2.087 1.29-3.636 1.29-1.704 0-3.192-.546-4.465-1.635l.76-1.058c1.318.92 2.522 1.38 3.613 1.38 1.104 0 1.956-.28 2.554-.84.599-.56.898-1.309.898-2.244 0-.676-.262-1.274-.783-1.795-.446-.446-1.373-.97-2.785-1.576-1.412-.607-2.386-1.178-2.923-1.715-.614-.614-.92-1.45-.92-2.509 0-1.15.417-2.094 1.254-2.83.836-.737 1.93-1.105 3.28-1.105 1.733 0 3.137.543 4.212 1.634l-.783.92c-1.028-.86-2.133-1.288-3.314-1.288-.952 0-1.726.248-2.325.748-.598.497-.897 1.13-.897 1.898 0 .613.214 1.135.644 1.565.429.429 1.296.921 2.601 1.473 1.395.583 2.362 1.09 2.9 1.52.905.766 1.358 1.749 1.358 2.945Zm11.392 3.338c-.123.152-.499.352-1.127.598a7.323 7.323 0 0 1-2.647.506c-1.55 0-2.808-.499-3.775-1.496-.966-.998-1.45-2.34-1.45-4.027 0-1.781.51-3.231 1.53-4.35 1.02-1.12 2.344-1.68 3.971-1.68.813 0 1.603.168 2.37.506.475.214.798.406.967.575l-.621.967c-.89-.538-1.818-.806-2.785-.806-1.182 0-2.145.433-2.888 1.3-.745.867-1.117 1.96-1.117 3.28 0 1.335.36 2.408 1.082 3.223.72.812 1.649 1.22 2.785 1.22.935 0 1.97-.285 3.107-.852l.598 1.036Zm3.913-13.902c0 .245-.09.46-.265.645a.873.873 0 0 1-.656.276.882.882 0 0 1-.644-.276.885.885 0 0 1-.276-.645.87.87 0 0 1 .276-.656.9.9 0 0 1 .644-.264.89.89 0 0 1 .656.264.891.891 0 0 1 .265.656Zm-.23 14.776h-1.381v-11.047h1.38v11.047Zm11.99-5.984c0 .03-.008.138-.022.322a5.218 5.218 0 0 0-.023.415h-7.917c0 1.257.329 2.27.99 3.038.658.766 1.594 1.15 2.807 1.15.935 0 2.002-.299 3.2-.897l.62 1.059c-.091.122-.468.322-1.127.598-.92.352-1.857.53-2.808.53-1.58 0-2.828-.523-3.74-1.566-.913-1.044-1.37-2.416-1.37-4.12 0-1.78.457-3.203 1.37-4.269.912-1.067 2.136-1.6 3.671-1.6 1.303 0 2.348.46 3.13 1.381.813.967 1.22 2.286 1.22 3.96Zm-1.403-.437c0-.967-.216-1.795-.644-2.486-.538-.828-1.298-1.243-2.279-1.243-.982 0-1.811.337-2.486 1.013-.676.675-1.044 1.58-1.104 2.716h6.513Zm12.52 6.421h-1.38v-6.444c0-.875-.024-1.473-.07-1.795-.092-.538-.284-.953-.575-1.243-.414-.414-.99-.622-1.726-.622-.69 0-1.45.176-2.279.53-.614.244-.982.428-1.104.552v9.022h-1.381v-11.047h1.312v.805c1.15-.722 2.361-1.081 3.636-1.081 1.089 0 1.94.306 2.555.92.46.46.76 1.043.897 1.75.076.398.115 1.065.115 2.002v6.651Zm11.439-.874c-.124.152-.5.352-1.128.598a7.323 7.323 0 0 1-2.647.506c-1.55 0-2.807-.499-3.774-1.496-.967-.998-1.45-2.34-1.45-4.027 0-1.781.51-3.231 1.53-4.35 1.02-1.12 2.344-1.68 3.97-1.68.813 0 1.603.168 2.371.506.475.214.797.406.967.575l-.622.967c-.89-.538-1.818-.806-2.784-.806-1.183 0-2.145.433-2.889 1.3-.745.867-1.116 1.96-1.116 3.28 0 1.335.36 2.408 1.082 3.223.72.812 1.648 1.22 2.784 1.22.935 0 1.971-.285 3.108-.852l.598 1.036Zm10.61-5.11c0 .03-.009.138-.023.322a5.218 5.218 0 0 0-.023.415h-7.917c0 1.257.33 2.27.99 3.038.658.766 1.595 1.15 2.807 1.15.935 0 2.003-.299 3.2-.897l.62 1.059c-.091.122-.468.322-1.127.598-.92.352-1.857.53-2.808.53-1.58 0-2.828-.523-3.74-1.566-.913-1.044-1.37-2.416-1.37-4.12 0-1.78.457-3.203 1.37-4.269.912-1.067 2.136-1.6 3.671-1.6 1.303 0 2.348.46 3.13 1.381.813.967 1.22 2.286 1.22 3.96Zm-1.404-.437c0-.967-.216-1.795-.644-2.486-.538-.828-1.298-1.243-2.279-1.243-.982 0-1.81.337-2.486 1.013-.676.675-1.044 1.58-1.104 2.716h6.513Zm10.818 3.406c0 1.027-.357 1.833-1.07 2.417-.714.582-1.685.874-2.912.874-.89 0-1.758-.17-2.601-.506-.584-.23-.952-.423-1.105-.575l.599-1.06a5.33 5.33 0 0 0 3.015.921c.828 0 1.475-.172 1.944-.517.468-.346.702-.817.702-1.416 0-.644-.315-1.174-.943-1.588-.23-.138-.837-.4-1.818-.782-1.06-.415-1.773-.776-2.14-1.082-.615-.506-.922-1.206-.922-2.095 0-.874.349-1.576 1.048-2.105.697-.53 1.576-.794 2.635-.794.828 0 1.618.152 2.37.46.491.198.813.375.967.53l-.552.989c-.906-.522-1.795-.783-2.67-.783-.66 0-1.22.153-1.68.46-.46.307-.69.706-.69 1.197 0 .567.237 1.013.713 1.335.198.138.75.392 1.657.76 1.165.475 1.925.843 2.279 1.105.782.566 1.173 1.319 1.173 2.255Zm20.92-4.741c0 2.394-.736 4.327-2.21 5.8a6.15 6.15 0 0 1-2.922 1.657c-.814.198-2.034.3-3.66.3h-3.475v-15.352h2.946c1.81 0 3.168.1 4.074.3 1.227.275 2.24.812 3.038 1.61 1.473 1.473 2.21 3.368 2.21 5.685Zm-1.496-.046c0-1.995-.607-3.6-1.818-4.81a4.627 4.627 0 0 0-2.348-1.266c-.736-.17-1.941-.253-3.613-.253h-1.519v12.911h2.094c1.32 0 2.316-.077 2.992-.23a5.124 5.124 0 0 0 2.486-1.38c1.15-1.152 1.726-2.809 1.726-4.972Zm5.984-6.974c0 .245-.089.46-.264.645a.873.873 0 0 1-.656.276.882.882 0 0 1-.645-.276.885.885 0 0 1-.276-.645.87.87 0 0 1 .276-.656.9.9 0 0 1 .645-.264.89.89 0 0 1 .656.264.891.891 0 0 1 .264.656Zm-.23 14.776h-1.38v-11.047h1.38v11.047Zm12.336-11.048-4.327 11.048h-1.634l-4.304-11.047h1.52l3.659 9.597 3.66-9.597h1.426Zm3.866-3.728c0 .245-.088.46-.264.645a.873.873 0 0 1-.656.276.882.882 0 0 1-.644-.276.885.885 0 0 1-.276-.645.87.87 0 0 1 .276-.656.9.9 0 0 1 .644-.264.89.89 0 0 1 .656.264.891.891 0 0 1 .265.656Zm-.23 14.776h-1.38v-11.047h1.38v11.047Zm10.035-3.015c0 1.027-.356 1.833-1.07 2.417-.713.582-1.684.874-2.911.874-.89 0-1.758-.17-2.6-.506-.585-.23-.953-.423-1.106-.575l.599-1.06a5.33 5.33 0 0 0 3.015.921c.828 0 1.476-.172 1.945-.517.467-.346.702-.817.702-1.416 0-.644-.316-1.174-.944-1.588-.23-.138-.837-.4-1.818-.782-1.059-.415-1.773-.776-2.14-1.082-.615-.506-.921-1.206-.921-2.095 0-.874.348-1.576 1.047-2.105.697-.53 1.576-.794 2.635-.794.829 0 1.618.152 2.37.46.491.198.813.375.967.53l-.552.989c-.906-.522-1.795-.783-2.67-.783-.66 0-1.22.153-1.68.46-.46.307-.69.706-.69 1.197 0 .567.237 1.013.713 1.335.199.138.75.392 1.657.76 1.165.475 1.925.843 2.279 1.105.782.566 1.173 1.319 1.173 2.255Zm4.373-11.761c0 .245-.089.46-.264.645a.873.873 0 0 1-.656.276.882.882 0 0 1-.645-.276.885.885 0 0 1-.276-.645.87.87 0 0 1 .276-.656.9.9 0 0 1 .645-.264.89.89 0 0 1 .656.264.891.891 0 0 1 .264.656Zm-.23 14.776h-1.38v-11.047h1.38v11.047Zm12.659-5.432c0 1.734-.458 3.12-1.37 4.155-.913 1.035-2.144 1.553-3.694 1.553-1.504 0-2.713-.526-3.625-1.576-.913-1.052-1.369-2.46-1.369-4.224 0-1.765.456-3.173 1.37-4.223.911-1.051 2.159-1.576 3.74-1.576 1.503 0 2.704.525 3.601 1.576.898 1.05 1.347 2.489 1.347 4.315Zm-1.427-.046c0-1.366-.343-2.482-1.024-3.348-.684-.868-1.547-1.3-2.59-1.3-1.09 0-1.96.414-2.612 1.242-.653.829-.978 1.933-.978 3.314s.34 2.498 1.024 3.35c.682.85 1.545 1.276 2.59 1.276 1.118 0 1.997-.407 2.635-1.22.635-.814.955-1.918.955-3.314Zm12.543 5.478h-1.38v-6.444c0-.875-.024-1.473-.07-1.795-.092-.538-.285-.953-.575-1.243-.415-.414-.99-.622-1.726-.622-.69 0-1.45.176-2.279.53-.614.244-.982.428-1.105.552v9.022h-1.38v-11.047h1.311v.805c1.151-.722 2.362-1.081 3.637-1.081 1.089 0 1.94.306 2.554.92.46.46.76 1.043.898 1.75.076.398.115 1.065.115 2.002v6.651Z"/></svg>
