<svg xmlns="http://www.w3.org/2000/svg" xml:space="preserve" fill-rule="evenodd" stroke-linejoin="round" stroke-miterlimit="2" clip-rule="evenodd" viewBox="0 0 1920 591"><path fill="#001b54" fill-rule="nonzero" d="M0 0h1919.293v590.555H0z"/><path fill="#fff" fill-rule="nonzero" d="M751.776 369.254c0-49.766-24.125-84.491-64.83-84.491-44.25 0-64.887 41.704-64.887 84.491 0 49.738 24.146 84.434 64.887 84.434 44.238 0 64.83-41.688 64.83-84.434Zm30.195-.987c0 54.733-42.241 94.47-95.025 94.47-53.808 0-95.046-40.182-95.046-92.516 0-54.767 42.238-94.508 95.046-94.508 53.805 0 95.025 40.237 95.025 92.554ZM1332.039 369.254c0-49.766-24.155-84.491-64.859-84.491-44.25 0-64.862 41.704-64.862 84.491 0 49.738 24.137 84.434 64.862 84.434 44.234 0 64.859-41.688 64.859-84.434Zm30.166-.987c0 54.733-42.241 94.47-95.025 94.47-53.817 0-95.042-40.182-95.042-92.516 0-54.767 42.242-94.508 95.042-94.508 53.796 0 95.025 40.237 95.025 92.554ZM1477.351 399.371c-10.57-15.083-14.6-20.583-27.658-20.583H1435.6v61.342c0 5.029 2.021 7.504 7.563 8.529l20.604 4.52v6.571h-80.954v-6.57l18.612-4.521c5.517-1.48 7.533-3.5 7.533-8.53V298.339c0-5.042-2.016-7.038-7.533-8.538l-18.612-4.529v-6.558h78.937c16.613 0 28.167 1.525 37.721 5.02 19.613 7.567 30.663 26.2 30.663 43.75 0 22.155-16.588 40.784-44.246 47.246v1.009c5.541 2.562 8.554 6.062 28.162 31.742l24.638 32.65c3.512 5.029 8.046 8.016 13.579 9.05l18.1 4v6.57h-43.238c-5.029 0-7.541-1.537-12.066-7.591l-37.713-52.788Zm-41.75-29.15h22.633c34.2 0 41.75-21.575 41.75-42.225 0-15.587-7.05-30.17-23.137-37.196-8.546-3.529-16.6-3.529-27.658-3.529H1435.6v82.95ZM1122.868 340.563h7.55v60.354h-7.55l-4.53-18.092c-1.516-6.566-5.529-9.062-11.562-9.062h-43.754v66.367c0 5.029 2.016 7.504 7.55 8.529l20.612 4.52v6.571h-80.942v-6.57l18.605-4.521c5.529-1.48 7.545-3.5 7.545-8.53V298.339c0-5.042-2.016-7.038-7.545-8.538l-18.605-4.529v-6.558h136.759v45.3h-7.542l-8.546-27.192c-2.008-7.02-5.029-9.55-11.066-9.55h-56.825v77.925h43.754c6.033 0 9.546-2.479 11.562-9.05l4.53-15.583ZM1637.743 287.271v155.842c0 6.57 1.496 8.108 8.046 8.108h22.117c21.125 0 36.708-3.075 47.766-11.091 18.604-13.563 27.159-38.196 27.159-69.388 0-30.67-8.555-60.808-33.684-75.404-10.554-6.054-24.137-8.067-45.267-8.067h-26.137Zm-52.808 172.48v-6.571l18.608-4.521c5.537-1.48 7.542-3.5 7.542-8.53V298.339c0-5.042-2.005-7.038-7.542-8.538l-18.608-4.529v-6.558h84.987c23.125 0 39.721 3.02 53.304 9.054 34.188 15.6 49.78 49.275 49.78 82.454 0 32.225-12.075 62.354-42.742 78.438-14.071 7.587-33.692 11.091-59.325 11.091h-86.004ZM852.872 453.18v6.57h-63.855v-6.57l16.067-4c6.062-1.546 10.058-3.509 14.08-8.025l55.32-69.392-55.32-73.425c-3.51-5.042-8.018-7.538-13.572-9.054l-15.091-4.013v-6.558h79.45v6.558l-17.08 3.504c-6.045 1.025-4.537 3.521-1.529 7.559l40.73 58.32h1.004l41.737-58.32c3.021-4.038 4.038-5.534-1.504-7.05l-16.092-4.013v-6.558h63.859v6.558l-16.096 4.013c-6.017 1.516-10.046 3.508-14.08 8.033l-52.287 65.912 58.321 76.9c3.538 5.03 8.046 7.505 13.58 9.05l15.095 4v6.571h-79.45v-6.57l17.092-3.496c6.041-1.025 5.033-2.984 2.012-7.088l-44.25-62.333h-1l-44.75 61.912c-3.02 4.009-4.025 5.459 1.504 7.005l16.105 4ZM662.4 193.525c-5 4.996-12.5 8.334-22.966 8.334-9.121 0-17.575-2.871-23.3-8.596-7.813-7.809-7.454-17.771-7.454-28.421v-50.35h10.27v54.091c0 6.846-.208 13.513 5.08 18.8 3.662 3.663 9.304 5.642 15.8 5.642 6.346 0 11.441-2.187 14.612-5.367 5.884-5.883 5.509-12.295 5.509-27.787v-45.38h10.116v42.713c0 16.234.659 27.996-7.666 36.321ZM753.521 200.246l-41.308-70.296.258 70.296h-9.437v-85.754h10.52l41.467 70.683-.262-70.683h9.442v85.754h-10.68ZM799.95 114.492h10.317v85.746h-10.316zM874.422 200.238h-11.813l-29.567-85.746h10.755l25.008 75.7 25.758-75.7h9.984l-30.125 85.746ZM927.884 200.238v-85.746h46.625v8.55h-36.512v28.3h34.275v8.337h-34.275v31.75h37.529v8.809h-47.642ZM1050.08 200.238l-9.846-22.225c-6.104-13.671-8.887-15.071-21.32-15.071h-5.976v37.296h-10.116v-85.746h18.504c11.441 0 20.07-.075 26.817 6.67 4.287 4.292 6.687 9.996 6.687 17.146 0 5.963-1.733 10.917-5.32 14.738-3.088 3.283-8.193 6.167-13.755 6.762 3.02.175 5.517 1.8 7.13 3.425 2.337 2.33 4.037 5.867 6.55 11.475l11.387 25.53h-10.742Zm-9.363-72.838c-4.912-4.92-11.291-4.692-18.283-4.692h-9.496v32.021h3.409c8.654 0 17.979.45 23.862-5.429 2.838-2.842 4.43-6.833 4.43-11.179 0-4.825-1.9-8.696-3.922-10.72ZM1160.984 114.492h10.321v85.746h-10.32zM1230.168 123.042v77.196h-10.305v-77.196h-25.495v-8.55h61.212v8.55h-25.412ZM1304.934 166.35v33.888h-10.187V166.35l-27.217-51.858h11.792l21.125 40.212 20.53-40.212h11.178l-27.22 51.858ZM1428.372 201.859c-22.188 0-38.42-18.33-38.42-44.105 0-26.483 16.053-44.883 39.216-44.883 22.441 0 38.296 18.204 38.296 44.092 0 26.545-15.884 44.896-39.092 44.896Zm-.033-80.226c-16.8 0-27.709 14.188-27.709 35.571 0 21.309 12.146 35.821 28.263 35.821 17.916 0 27.891-15.25 27.891-36.492 0-20.92-11.775-34.9-28.445-34.9ZM1505.893 123.042v28.3h33.154v8.337h-33.154v40.559h-10.238v-85.746h45.538v8.55h-35.3ZM1081.6 135.413c0-13.175 10.605-22.559 26.097-22.559 15.683 0 23.204 8.1 23.97 8.934l-5.033 6.091c-1.92-1.479-8.783-6.52-18.262-6.52-10.938 0-16.996 5.716-16.996 13.474 0 3.759 1.542 6.463 4.012 8.68 2.946 2.641 7.234 4.591 11.855 6.716 5.754 2.642 13.629 5.617 18.912 11.096 3.654 3.783 6.413 8.713 6.413 15.471 0 14.258-9.896 25.12-27.696 25.12-15.171 0-24.738-8.353-25.642-9.19l4.73-6.955c2.433 1.808 11.953 7.442 20.662 7.442 12.904 0 17.729-7.067 17.729-15.584 0-3.962-1.796-7.146-4.47-9.708-4-3.854-10.055-6.433-15.855-9.083-5.763-2.634-11.313-5.388-15.242-9.517-2.591-2.72-5.183-7.167-5.183-13.908ZM293.525 230.759c0-7.584-2.566-13.7-8.12-16.963-3.48-2.046-8.188-2.712-13.996-2.712l-42.271-.005v85.342h46c10.608 0 16.841 2.388 17.383 11.896h1.008l-.004-77.558ZM299.43 230.759c0-7.584 2.574-13.7 8.124-16.963 3.484-2.046 8.196-2.712 14.009-2.712l42.562-.005v85.342h-46.3c-10.604 0-16.837 2.388-17.383 11.896h-1.017l.004-77.558Z"/><path fill="#fff" fill-rule="nonzero" d="M373.021 217.388v90.216h-65.417l-.741 1.846c-1.138 2.813-3.18 5.417-10.313 5.417-7.133 0-9.158-2.604-10.308-5.417l-.746-1.846H220.26v-90.216h-5.905v2.746l-5.658-1.738c-.654-2.225-2.696-3.862-5.13-3.862a5.384 5.384 0 0 0-5.378 5.375 5.381 5.381 0 0 0 5.379 5.375c1.296 0 2.47-.48 3.396-1.246l7.391 2.27v7.255l-5.554-.996a5.378 5.378 0 0 0-4.942-3.263 5.377 5.377 0 0 0-5.375 5.375c0 2.971 2.413 5.371 5.375 5.371a5.35 5.35 0 0 0 3.888-1.679l6.608 1.188v7.395l-5.804-.258c-.937-1.562-2.637-2.625-4.592-2.625a5.38 5.38 0 0 0-5.375 5.375 5.377 5.377 0 0 0 5.375 5.375c1.788 0 3.363-.883 4.342-2.23l6.054.268v8.033l-5.929.212a5.366 5.366 0 0 0-4.37-2.262 5.377 5.377 0 0 0-5.372 5.375 5.377 5.377 0 0 0 5.371 5.375c1.942 0 3.63-1.046 4.575-2.588l5.725-.208v7.408l-6.487 1.113c-.984-1.042-2.367-1.708-3.909-1.708a5.381 5.381 0 0 0-5.375 5.379 5.377 5.377 0 0 0 5.375 5.37 5.363 5.363 0 0 0 4.921-3.229l5.475-.941v7.27l-7.096 2.167a5.315 5.315 0 0 0-3.4-1.246 5.38 5.38 0 0 0-5.375 5.375c0 2.971 2.413 5.371 5.375 5.371 2.438 0 4.475-1.633 5.134-3.858l5.362-1.642v7.03l-7.837 3.387a5.327 5.327 0 0 0-2.95-.892 5.381 5.381 0 0 0-5.38 5.375 5.384 5.384 0 0 0 5.38 5.375c2.641 0 4.833-1.916 5.275-4.441l5.512-2.375v6.42h67.509c2.746 4.788 7.487 7.263 14.687 7.263 7.2 0 11.95-2.475 14.688-7.263h67.683v-96.116h-5.9ZM252.138 187.304c-13.65 0-24.704 2.121-24.704 4.738 0 2.62 11.054 4.737 24.704 4.737 13.641 0 24.7-2.116 24.7-4.737 0-2.617-11.059-4.738-24.7-4.738ZM286.15 157.708l-14.258 10.021-.12 1.017 3.382 1.52c.68.338.68.876.338 1.2l-8.958 7.563-.846-.075-6.346-9.354c-.442-.604-.28-1.208.483-1.337l4.259-.696v-1.075l-11.042-15.604h-1.817l-11.041 15.604v1.075l4.262.696c.763.129.92.733.483 1.337l-6.35 9.354-.841.075-8.371-7.562c-.338-.325-.338-.863.333-1.2l3.388-1.521-.121-1.017-14.854-10.02-1.204.47 8.716 26.646c4.434-1.987 14.6-3.387 26.504-3.442 11.913.055 22.08 1.455 26.505 3.442l8.725-26.646-1.209-.47ZM296.446 366.004c-13.65 0-24.708 2.125-24.708 4.738 0 2.617 11.058 4.737 24.708 4.737 13.642 0 24.7-2.12 24.7-4.737 0-2.613-11.058-4.738-24.7-4.738ZM330.459 336.404l-14.259 10.03-.125 1.016 3.392 1.521c.67.333.675.871.337 1.196l-8.958 7.562-.858-.075-6.342-9.35c-.433-.612-.28-1.212.488-1.345l4.262-.692v-1.07l-11.05-15.605h-1.808l-11.046 15.604v1.071l4.262.692c.759.133.921.733.484 1.345l-6.35 9.35-.85.075-8.359-7.562c-.345-.325-.341-.863.334-1.196l3.383-1.52-.12-1.017-14.855-10.03-1.208.475 8.729 26.65c4.43-1.991 14.592-3.391 26.5-3.445 11.908.054 22.075 1.454 26.504 3.445l8.72-26.65-1.207-.475ZM340.654 187.304c-13.654 0-24.716 2.121-24.716 4.738 0 2.62 11.062 4.737 24.716 4.737 13.634 0 24.692-2.116 24.692-4.737 0-2.617-11.058-4.738-24.692-4.738ZM374.659 157.708 360.4 167.73l-.125 1.017 3.388 1.52c.67.338.675.876.333 1.2l-8.954 7.563-.846-.075-6.35-9.354c-.437-.604-.275-1.208.488-1.337l4.254-.696v-1.075l-11.042-15.604h-1.812l-11.042 15.604v1.075l4.258.696c.767.129.925.733.488 1.337l-6.342 9.354-.858.075-8.363-7.662c-.341-.321-.337-.863.334-1.196l3.391-1.425-.125-1.017-14.858-10.02-1.2.47 8.72 26.646c4.422-1.987 14.597-3.387 26.505-3.442 11.908.055 22.07 1.455 26.496 3.442l8.729-26.646-1.208-.47Z"/><path fill="#001b54" fill-rule="nonzero" d="M239.134 233.854c0 1.675.416 1.996 1.316 1.996 1.621 0 3.254-1.787 3.254-5.12 0-4.042-2.05-5.171-3.65-5.171-.433 0-.679.058-.808.133-.096.037-.112.47-.112.942v7.22Zm.92-9.237c2.317 0 4.238.454 5.496 1.675.884.85 1.613 2.242 1.613 3.858 0 4.684-3.55 6.696-7.9 6.696h-4.85v-.733c1.37-.113 1.525-.246 1.525-2.275v-6.209c0-2.029-.154-2.166-1.38-2.275v-.737h5.496ZM252.3 230.263c0 3.408 1.275 5.887 3.125 5.887 1.621 0 2.496-1.558 2.496-4.966 0-3.78-1.35-5.867-2.967-5.867-1.445 0-2.654 1.654-2.654 4.946Zm9.125.32c0 4.03-2.746 6.546-6.354 6.546-3.8 0-6.267-2.766-6.267-6.229 0-3.046 2.03-6.562 6.525-6.562 3.442 0 6.096 2.52 6.096 6.246ZM278.042 224.617v.737c-1.438.134-1.513.205-1.45 2.184l.183 6.3c.059 2.087.1 2.146 1.45 2.275v.733h-5.883v-.733c1.408-.13 1.462-.188 1.442-2.275l-.05-6.621h-.08l-3.629 9.425h-1.012l-3.45-8.767h-.038l-.133 4.175c-.05 1.621-.03 2.521.042 3.1.075.7.487.871 1.708.963v.733H262.5v-.733c.904-.075 1.259-.263 1.371-.963.1-.579.208-1.575.3-3.291l.204-3.796c.138-2.371-.016-2.575-1.496-2.709v-.737h4.417l3.292 7.45 2.879-7.45h4.575ZM284.15 233.838c0 2.029.146 2.162 1.446 2.275v.733H279.5v-.733c1.3-.113 1.454-.246 1.454-2.275v-6.209c0-2.029-.154-2.166-1.454-2.275v-.737h6.096v.737c-1.3.109-1.446.246-1.446 2.275v6.209ZM253.854 259.554h-1.616l-6.959-8.879h-.045v3.459c0 1.975.079 3.008.154 3.591.091.663.6.904 1.841.963v.733h-4.679v-.733c.821-.038 1.309-.3 1.409-.963.07-.583.145-1.616.145-3.591v-3.459c0-1.391-.037-1.637-.416-2.166-.275-.396-.742-.521-1.421-.584v-.733h4.158l6.259 7.808h.041v-2.52c0-1.976-.075-3.009-.154-3.592-.087-.659-.604-.9-1.842-.963v-.733h4.792v.733c-.933.042-1.425.304-1.52.963-.076.583-.147 1.616-.147 3.591v7.075ZM261.475 259.554c-1.304-3.387-3.07-8.033-3.746-9.804-.62-1.616-.995-1.712-1.9-1.825v-.733h6.071v.733l-.633.075c-.696.08-.696.246-.488.909.334 1.05 1.821 4.758 2.517 6.6.583-1.6 1.792-5.192 2.088-6.075.395-1.15.283-1.355-.559-1.446l-.57-.063v-.733h4.562v.733c-1.08.134-1.342.23-2.08 1.942-.116.258-2.408 5.85-3.816 9.687h-1.446ZM269.959 255.546c.391 1.092 1.5 3.18 3.354 3.18.975 0 1.725-.642 1.725-1.863 0-1.109-.734-1.73-1.88-2.259l-.287-.133c-1.537-.712-3.287-1.692-3.287-3.7 0-2.13 1.537-3.862 4.491-3.862.584 0 1.188.075 1.734.229.429.112.733.183.979.262.07.734.204 1.654.412 2.934l-.829.133c-.412-1.242-1.07-2.575-2.554-2.575-.967 0-1.642.729-1.642 1.633 0 .942.738 1.488 1.938 2.034l.412.187c1.742.792 3.217 1.75 3.217 3.95 0 2.313-1.858 4.008-4.77 4.008-.76 0-1.53-.15-2.038-.32-.559-.188-.959-.338-1.18-.45-.154-.867-.395-1.884-.62-3.142l.825-.246ZM245.488 278.988c0 2.029.146 2.158 1.45 2.275v.733h-6.096v-.733c1.292-.117 1.446-.246 1.446-2.275v-6.213c0-2.029-.154-2.162-1.446-2.275v-.733h6.096v.733c-1.304.113-1.45.246-1.45 2.275v6.213ZM252.934 279.23c0 .979.037 1.445.375 1.616.304.15.737.17 1.316.17.604 0 1.417-.053 1.809-.55.304-.35.616-.862.925-1.857l.808.133c-.108.712-.508 2.67-.68 3.254h-9.324v-.733c1.42-.117 1.579-.246 1.579-2.275v-6.213c0-2.029-.158-2.162-1.413-2.275v-.733h6.113v.733c-1.354.113-1.508.246-1.508 2.275v6.454ZM263.438 279.23c0 .979.033 1.445.37 1.616.3.15.73.17 1.317.17.604 0 1.417-.053 1.809-.55.3-.35.62-.862.916-1.857l.817.133c-.117.712-.517 2.67-.683 3.254h-9.33v-.733c1.434-.117 1.58-.246 1.58-2.275v-6.213c0-2.029-.146-2.162-1.413-2.275v-.733h6.117v.733c-1.359.113-1.5.246-1.5 2.275v6.454ZM272.425 282.125c-1.304-3.383-3.066-8.029-3.746-9.8-.62-1.616-1-1.712-1.904-1.825v-.733h6.08v.733l-.642.075c-.692.075-.692.246-.48.904.334 1.055 1.821 4.759 2.513 6.605.583-1.6 1.792-5.192 2.092-6.08.4-1.145.287-1.354-.567-1.445l-.558-.059v-.733h4.55v.733c-1.075.134-1.338.23-2.071 1.942-.12.258-2.413 5.85-3.817 9.683h-1.45ZM322.954 224.617v.737c-1.433.134-1.508.205-1.45 2.184l.184 6.3c.062 2.087.104 2.146 1.454 2.275v.733h-5.883v-.733c1.408-.13 1.458-.188 1.437-2.275l-.05-6.621h-.08l-3.632 9.425h-1.009l-3.437-8.767h-.042l-.133 4.175c-.054 1.621-.038 2.521.033 3.1.07.7.488.871 1.713.963v.733h-4.646v-.733c.904-.075 1.258-.263 1.37-.963.1-.579.209-1.575.305-3.291l.204-3.796c.137-2.371-.008-2.575-1.5-2.709v-.737h4.42l3.292 7.45 2.88-7.45h4.57ZM329.063 233.838c0 2.029.15 2.162 1.446 2.275v.733h-6.096v-.733c1.3-.113 1.454-.246 1.454-2.275v-6.209c0-2.029-.154-2.166-1.454-2.275v-.737h6.096v.737c-1.296.109-1.446.246-1.446 2.275v6.209ZM343.059 236.98h-1.617l-6.963-8.88h-.033v3.463c0 1.97.07 3.008.154 3.587.092.663.596.909 1.842.963v.733h-4.688v-.733c.825-.038 1.321-.3 1.409-.963.079-.579.154-1.616.154-3.587V228.1c0-1.391-.038-1.637-.413-2.162-.283-.396-.754-.525-1.425-.584v-.737h4.15l6.271 7.808h.03v-2.52c0-1.976-.071-3.009-.146-3.592-.1-.659-.6-.9-1.85-.959v-.737h4.804v.737c-.942.038-1.434.3-1.525.959-.067.583-.154 1.616-.154 3.591v7.075ZM348.538 232.03h2.404l-1.188-3.592h-.05l-1.166 3.591Zm2.383 4.083.563-.075c.704-.092.737-.28.495-.963l-.675-1.916h-3.091l-.559 1.808c-.245.808-.245.996.613 1.092l.55.054v.733h-4.388v-.733c.971-.13 1.25-.209 1.871-1.788l3.763-9.725 1.291-.262 1.288 3.554a651.43 651.43 0 0 0 2.32 6.379c.61 1.633.947 1.73 1.872 1.842v.733h-5.913v-.733ZM322.809 256.413c0 2.029.145 2.162 1.725 2.275v.733h-6.58v-.733c1.496-.113 1.65-.246 1.65-2.275v-8.242h-.316c-1.263 0-1.771.23-2.071.567-.22.279-.458.77-.692 1.825h-.796c.075-1.584.192-2.88.225-3.838h.58c.287.43.479.467.983.467h7.504c.496 0 .588-.113.883-.467h.588c.017.788.112 2.388.204 3.78l-.83.058c-.274-1.13-.482-1.617-.766-1.942-.325-.337-.946-.45-1.85-.45h-.441v8.242ZM332.654 256.413c0 2.029.155 2.162 1.446 2.275v.733h-6.096v-.733c1.3-.113 1.45-.246 1.45-2.275v-6.209c0-2.033-.15-2.166-1.45-2.279v-.733h6.096v.733c-1.291.113-1.446.246-1.446 2.28v6.208ZM339.167 252.834c0 3.408 1.283 5.891 3.125 5.891 1.625 0 2.5-1.562 2.5-4.966 0-3.78-1.35-5.867-2.97-5.867-1.447 0-2.655 1.654-2.655 4.942Zm9.13.325c0 4.025-2.747 6.545-6.36 6.545-3.8 0-6.258-2.766-6.258-6.229 0-3.046 2.021-6.566 6.521-6.566 3.442 0 6.096 2.525 6.096 6.25ZM328.359 269.767v.733c-1.434.134-1.509.209-1.45 2.184l.191 6.304c.054 2.083.088 2.146 1.442 2.275v.733h-5.883v-.733c1.404-.13 1.466-.192 1.441-2.275l-.05-6.625h-.079l-3.63 9.425h-1.016l-3.437-8.767h-.046l-.13 4.18c-.058 1.616-.033 2.516.038 3.1.075.695.488.866 1.713.962v.733h-4.65v-.733c.904-.08 1.266-.267 1.375-.963.1-.583.208-1.579.304-3.291l.2-3.8c.137-2.371-.008-2.575-1.496-2.709v-.733h4.42l3.293 7.45 2.875-7.45h4.575ZM331.267 272.775c0-2.029-.154-2.162-1.404-2.275v-.733h8.912c.025.32.113 1.696.209 3.104l-.83.054c-.187-.92-.395-1.446-.7-1.746-.295-.32-.92-.433-1.916-.433h-.321c-.708 0-.75 0-.75.658v3.63h.933c1.621 0 1.68-.113 1.875-1.542h.821v4.437h-.82c-.197-1.65-.255-1.766-1.876-1.766h-.933v3.066c0 .98.042 1.446.375 1.617.304.15.733.17 1.32.17.75 0 1.584-.112 1.992-.562.317-.337.646-1.033.925-1.941l.821.133c-.083.92-.487 2.842-.658 3.35h-9.57v-.733c1.44-.117 1.595-.246 1.595-2.275v-6.213ZM344.117 277.18h2.412l-1.187-3.592h-.063l-1.162 3.591Zm2.392 4.083.562-.08c.692-.091.738-.279.492-.958l-.684-1.916h-3.075l-.575 1.808c-.245.808-.245.996.621 1.087l.542.059v.733h-4.37v-.733c.95-.13 1.24-.209 1.857-1.788l3.763-9.725 1.304-.266 1.267 3.558c.816 2.237 1.62 4.458 2.337 6.38.609 1.632.942 1.724 1.863 1.84v.734h-5.904v-.733Z"/><path fill="#fff" fill-rule="nonzero" d="M279.48 433.342a4.914 4.914 0 0 1-4.913 4.917 4.918 4.918 0 1 1 0-9.838 4.92 4.92 0 0 1 4.912 4.921ZM329.375 441.525a4.92 4.92 0 1 1-9.841 0 4.917 4.917 0 0 1 4.916-4.912c2.721 0 4.925 2.2 4.925 4.912ZM301.175 85.975c0 2.717-2.2 4.917-4.925 4.917-2.72 0-4.912-2.2-4.912-4.917a4.91 4.91 0 0 1 4.912-4.92c2.725 0 4.925 2.2 4.925 4.92ZM418.259 132.025a4.93 4.93 0 0 1-5.134 4.708 4.917 4.917 0 1 1 .417-9.825c2.708.113 4.83 2.409 4.717 5.117ZM171.508 343.213c1.892 2.72 2.846 5.633 2.838 8.646-.004 3.437-1.154 6.225-7.308 10.487l-17.759 12.658-3.27-4.704s18.195-12.954 18.495-13.162c3.134-2.171 4.475-3.759 4.48-6.242 0-1.575-.576-3.292-1.713-4.933-1.783-2.559-4.067-3.38-6.075-3.38-1.83-.004-3.796 1.276-7.292 3.717l-16.708 11.33-3.208-4.613 15.895-10.77c4.425-3.105 7.95-5.238 11.221-5.234 4.78.008 8.263 3.116 10.404 6.2ZM114.738 308.53l33.8-11.855 1.87 5.125-19.337 23.621 24.433-9.667 1.821 4.988-33.408 12.833-1.867-5.12 19.433-23.655-24.925 8.721-1.82-4.992ZM109.68 281.617l35.378-5.246.838 5.663-35.375 5.245-.842-5.662ZM108.633 238.963l.138-5.934 35.308 14.346-.25 5.892-36.258 10.808.042-5.941 29.395-8.242-28.375-10.93ZM134.554 169.783c2.1-3.812 3.592-5.258 5.813-5.245.82 0 1.854.204 2.896.779 1.341.741 2.366 1.979 2.75 3.308.15.517.212 1.03.204 1.546-.017 2.12-1.2 4.258-2.438 6.492l-.733 1.325-10.08-5.413 1.588-2.792Zm6.363-10.837c-5.054.008-7.392 2.904-10.617 8.733l-4.2 7.525 31.504 17.096 2.721-4.917-13.092-7.15.767-1.412c2.2-3.988 2.963-4.592 8.58-4.117l10.203.904 2.917-5.283-11.758-1.004c-2.363-.22-4.225-.396-5.738.046-.504.146-1.108.454-1.691.866.137-.641.379-1.262.383-1.912a8.986 8.986 0 0 0-.438-2.913c-.683-2.1-2.183-3.8-4.445-5.058-1.692-.929-3.384-1.408-5.096-1.404ZM180.058 108.404l4.555-3.47 21.704 28.424-4.554 3.471-21.705-28.425ZM199.7 94.458l23.138-12.045 2.254 4.345-9 4.684 14.258 27.387-5.079 2.642-14.258-27.38-9.055 4.713-2.258-4.346ZM257.413 71.538l6.037-1.684-4.854 23.925 3.925 13.588-5.454 1.57-3.842-13.479-16.983-17.72 5.879-1.705 12.22 12.734 3.072-17.23ZM366.546 120.43l18.158-30.813 17.092 10.066-2.487 4.217-12.209-7.192-5.016 8.525L393.567 112l-2.425 4.125-11.488-6.767-8.212 13.955-4.896-2.884ZM458.442 200.1l13.02-15.579 2.03 6.167-9.692 11.096 14.4 3.233 1.909 5.817-19.704-4.771-13.996 16.775-1.992-6.067 10.563-12.312-15.792-3.6-1.93-5.871 21.184 5.112ZM448.221 235.242l35.65-2.904 1.617 19.77-4.883.4-1.146-14.116-9.863.804 1.08 13.288-4.767.383-1.088-13.283-16.137 1.316-.463-5.658ZM466.805 294.384c-6.971 0-15.105-3.796-15.105-10.817 0-2.546.88-5.963 4.03-8.246 2.12-1.542 4.879-2.367 7.97-2.367 3.55 0 9.946 1 13.305 5.63a9.007 9.007 0 0 1 1.733 5.425c0 2.737-1.117 5.991-4.05 8.116-2.08 1.509-4.817 2.259-7.883 2.259Zm-2.821-27.255c-4.134 0-7.934 1.117-10.938 3.3-5.391 3.913-6.375 9.53-6.375 12.817 0 12.092 11.354 16.925 19.892 16.925 4.096.008 7.85-1.112 10.804-3.25 6.03-4.362 6.35-10.92 6.35-13.03 0-10.55-9.692-16.762-19.733-16.762ZM437.659 177.213c-3.209 0-6.109-1.346-8.109-4.5a9.532 9.532 0 0 1-1.525-5.096c-.02-4.042 2.546-8.192 7.234-11.171 3.108-1.967 6.154-2.938 8.879-2.925 3.45 0 6.258 1.517 8.125 4.47 1.108 1.742 1.617 3.597 1.617 5.447 0 3.95-2.505 7.82-7.034 10.691-3.175 2.017-6.379 3.084-9.187 3.084Zm5.57-29.138c-3.616 0-7.466 1.146-11.179 3.5-6.87 4.363-9.375 10.604-9.375 15.163 0 2.95.809 5.841 2.5 8.504 3.809 6.016 9.538 7.487 13.405 7.47 3.687-.02 7.587-1.241 11.254-3.574 4.425-2.805 9.354-8.017 9.354-15.075 0-2.934-.838-5.817-2.533-8.488-3.13-4.933-8.038-7.5-13.425-7.5ZM343.813 106.313a9.72 9.72 0 0 1-8.43-5.088c-1.008-1.846-1.458-4.092-1.458-6.417 0-6.4 4.271-15.387 12.063-15.387 4.375 0 9.875 3.258 9.875 11.342 0 5.154-3.638 15.55-12.05 15.55Zm1.833-31.9c-7.45 0-13.946 5.016-16.558 13.937-.58 1.975-.946 3.938-.946 5.838 0 3.575.596 6.404 2.062 9.075 3.305 6.05 9.363 8.112 13.963 8.112 2.604 0 5.104-.592 7.408-1.846 6.03-3.3 10.017-10.962 10.017-18.291 0-3.18-.617-6.175-2.033-8.746-2.905-5.275-8.275-8.08-13.913-8.08ZM147.546 204.121l4.804 1.354-5.42 19.642-34.613-9.483 5.912-19.875 4.704 1.329-4.345 14.32 9.545 2.617 3.68-13.004 4.604 1.308-3.667 12.963 10.796 2.967 4-14.138ZM156.625 129.396c4.967-5.567 10.05-5.183 10.05-5.183l.867 4.716s-3.917.13-6.988 3.563c-1.333 1.5-2.004 3.062-2.004 4.466 0 1.163.45 2.175 1.358 2.984 2.48 2.208 6.713-.246 9.363-1.309 2.037-.845 4.933-2.02 7.83-2.02 2.157 0 4.39.612 6.432 2.437 2.38 2.125 3.575 4.792 3.575 7.596 0 3.037-1.179 5.742-3.554 8.4-4.562 5.108-10.7 5.667-10.7 5.667l-1.22-4.784c3.62-.837 6.354-2.225 8.012-4.091 1.304-1.459 1.95-3.092 1.95-4.534 0-1.346-.567-2.604-1.67-3.591-.893-.796-1.984-1.088-3.168-1.063-2.3 0-5.05 1.317-7.32 2.263-4.342 1.791-8.93 3.241-13.03-.425-2.091-1.863-3.2-4.213-3.2-6.813 0-2.754 1.092-5.675 3.417-8.28ZM459.834 334.625c-1.609.004-4.346-.929-5.384-3.591a5.548 5.548 0 0 1-.362-2.059c.017-1.962.946-3.996 1.904-6.133l.604-1.38 10.313 4.638-1.142 2.759c-1.925 4.37-3.175 5.758-5.933 5.766Zm-21.117-21.208 13.525 6.112-.675 1.525c-1.842 4.163-2.542 4.838-8.18 4.863l-10.24.008-2.434 5.517 11.796-.038c2.391.005 4.246.005 5.708-.558a5.92 5.92 0 0 0 1.508-.88c-.037.305-.137.605-.137.91-.017 1.316.225 2.616.729 3.753 1.608 3.784 6.008 5.634 9.233 5.625 5.696-.008 7.875-3.408 10.638-9.675l3.32-7.662-32.516-14.65-2.275 5.15ZM432.63 374.175c-2.838 0-5.509-1.096-8.288-3.312-2.812-2.246-5.796-5.75-5.796-10.221 0-3.1 1.684-6.067 4.28-9.32l2.366-2.963 20.43 16.304-1.567 1.95c-3.788 4.754-6.38 7.562-11.425 7.562Zm-12.746-26.925c-3.709 4.642-6.525 8.792-6.525 14.154 0 4.55 2.066 9.734 7.3 13.909 3.47 2.766 7.391 4.27 11.433 4.27 4.975 0 8.963-1.495 15.163-9.262l5.65-7.104L424.95 340.9l-5.066 6.35Z"/><path fill="#fff" fill-rule="nonzero" d="M416.559 415.284c-33.292 11.77-64.359 10.962-90.859 5.046.867-11.838 5.763-24.484 13.259-26.838 58.366-18.104 100.883-72.525 100.883-136.667 0-78.892-64.308-143.075-143.35-143.075-79.038 0-143.342 64.183-143.342 143.075 0 43.888 20.5 85.58 55.008 112.613-8.195 3.6-15.183 9.425-20.237 16.675-2.62-1.784-5.142-3.63-7.475-5.546l-1.304 1.304c1.562 1.892 3.979 4.375 6.891 7.163-4.25 7.15-6.708 15.47-6.708 24.366 0 1.384.092 2.75.208 4.1-51.354-37.425-81.87-96.92-81.87-160.675 0-109.629 89.2-198.817 198.829-198.817 109.637 0 198.833 89.188 198.833 198.817 0 62.792-28.708 120.484-78.766 158.459Zm-115.35 46.925c-27.475 0-61.759-9.334-85.317-23.234-7.142-4.212-15.65-12.045-15.65-25.429 0-3.612.712-7.062 1.962-10.237 8.792 7.27 17.888 14.083 23.584 17.204 1.312.72 2.075 1.07 3.596 1.07 3.666 0 6.625-2.978 6.625-6.65 0-2.808-1.525-5.087-4.038-6.183-4.87-2.133-15.07-6.346-26.05-12.037 5.075-6.7 13.075-11.054 22.088-11.054 4.116 0 8.083.879 11.783 2.625l7.525 4.387c23.942 14.625 85.537 52.121 159.904 31.517-28.225 25.47-62.996 38.02-106.012 38.02Zm23.545 16.741c-7.55 0-13.745 5.346-13.745 13.55 0 8.025 6.279 13.55 13.745 13.55 1.138 0 2.225-.195 3.28-.466-1.58 11.362-14.813 24.079-31.884 29.796-16.929-5.675-30.158-18.484-31.908-29.788 1.046.27 2.129.458 3.258.458 8.142 0 13.75-5.704 13.75-13.55 0-7.483-5.883-13.354-13.454-13.52 2.308-4.23 4.53-8.721 6.163-13.542 9.391 1.63 18.645 2.525 27.25 2.525 7.054 0 13.908-.383 20.595-1.063.888 3.88 2.209 7.93 3.755 12.113-.271-.013-.53-.063-.805-.063Zm-97.183-107.862c14.133 0 27.363 7.254 35.113 18.866a136.3 136.3 0 0 1-19.959-6.737l-.029.037-.212-.12a33.684 33.684 0 0 0-14.475-3.23c-11.263 0-21.23 5.525-27.38 13.967a174.408 174.408 0 0 1-7.725-4.525c7.625-11.012 20.309-18.258 34.667-18.258Zm55.954 28.208c-1.754 1.304-3.15 2.858-4.15 4.567-5.183-2.517-11.7-5.763-15.958-8.146 6.029 1.333 13.908 3.025 20.108 3.58Zm43.521-2.7c-4.117 5.875-6.567 14.042-7.304 22.304-12.992-3.345-24.783-7.845-35.067-12.537 1.959-3.784 7.554-6.463 11.817-6.463 10.487 0 20.696-1.158 30.554-3.304Zm-30.554-2.446a137.63 137.63 0 0 1-25.892-2.462c-8.179-16.034-24.933-26.346-43.029-26.346-4.45 0-8.733.646-12.825 1.775-34.788-25.85-55.538-66.958-55.538-110.292 0-75.72 61.588-137.325 137.284-137.325 75.7 0 137.296 61.604 137.296 137.325 0 75.721-61.596 137.325-137.296 137.325ZM227.57 455.7c-23.263 0-42.188-18.975-42.188-42.3a42.173 42.173 0 0 1 5.125-20.191 330.204 330.204 0 0 0 6.905 6.079c-2.05 4.337-3.23 9.154-3.23 14.258 0 12.684 6.4 23.167 18.509 30.313 6.954 4.1 14.829 7.804 23.162 11.025-2.708.537-5.47.816-8.283.816Zm273.817-198.875c0-112.8-91.921-204.567-204.896-204.567-112.971 0-204.888 91.767-204.888 204.567 0 67.671 33.417 130.746 89.404 168.963 5.509 20.504 24.267 35.667 46.563 35.667 6.03 0 11.875-1.142 17.43-3.292a206.578 206.578 0 0 0 22.97 6.117c-2.18 6.212-5.354 12.104-8.38 17.195 0 0 .063-.012.168-.037-.055.042-.117.067-.175.108l4.27 4.271c1.084-.6 2.321-.967 3.646-.967 4.217 0 7.65 3.43 7.65 7.65 0 4.213-3.433 7.65-7.65 7.65-3.683 0-6.916-2.362-8.608-4.883 0 0-.992 3.438-.992 7.975-.033 14.696 16.004 31.48 38.25 38.558 22.23-6.916 38.267-23.829 38.263-38.533 0-5.062-1-8-1-8-1.713 2.054-4.48 4.883-8.659 4.883-4.208 0-7.645-3.437-7.645-7.65 0-4.22 3.437-7.65 7.645-7.65 1.48 0 2.85.438 4.025 1.171l4.134-4.141.162.041c-2.346-5.604-4.05-10.75-5.212-15.696 36.837-4.958 67.916-20.554 92.629-46.537l-.008-.025c51.408-39.067 80.904-98.346 80.904-162.838Z"/></svg>
