<svg xmlns="http://www.w3.org/2000/svg" role="presentation" class="{{ class }}" height="24" width="24" fill="currentColor" viewBox="64 64 896 896">
  <path d="M511.6 76.3A447.2 447.2 0 0 0 64 523.5 447.7 447.7 0 0 0 363.8 946c23.5 5.9 19.9-10.8 19.9-22.2v-77.5c-135.7 15.9-141.2-73.9-150.3-88.9C215 726 171.5 718 184.5 703c30.9-15.9 62.4 4 98.9 57.9 26.4 39.1 77.9 32.5 104 26a126.1 126.1 0 0 1 34.7-60.8c-140.6-25.2-199.2-111-199.2-213 0-49.5 16.3-95 48.3-131.7-20.4-60.5 1.9-112.3 4.9-120 58.1-5.2 118.5 41.6 123.2 45.3 33-8.9 70.7-13.6 112.9-13.6 42.4 0 80.2 4.9 113.5 13.9 11.3-8.6 67.3-48.8 121.3-43.9 2.9 7.7 24.7 58.3 5.5 118a197 197 0 0 1 48.9 132.3c0 102.2-59 188.1-200 212.9a127.5 127.5 0 0 1 38.1 91v112.5c.8 9 0 17.9 15 17.9A447.3 447.3 0 0 0 511.6 76.3z"/>
</svg>
